<svg xmlns="http://www.w3.org/2000/svg" xmlns:xlink="http://www.w3.org/1999/xlink" width="500" zoomAndPan="magnify" viewBox="0 0 375 260.250006" height="347" preserveAspectRatio="xMidYMid meet" version="1.0"><defs><clipPath id="a31c6bd26e"><path d="M 0.539062 0 L 374.460938 0 L 374.460938 258 L 0.539062 258 Z M 0.539062 0 " clip-rule="nonzero"/></clipPath></defs><g clip-path="url(#a31c6bd26e)"><path fill="#000000" d="M 27.074219 257.242188 C 25.691406 256.957031 23.484375 256.023438 22.171875 255.167969 C 9.179688 246.683594 7.878906 245.386719 7.875 240.898438 C 7.875 237.65625 9.234375 227.261719 10.675781 219.539062 C 11.285156 216.28125 12.316406 209.328125 12.972656 204.082031 C 13.625 198.839844 14.773438 192.140625 15.523438 189.195312 L 16.882812 183.84375 L 15.683594 180.5625 C 14.742188 177.980469 14.546875 176.460938 14.765625 173.386719 C 15.160156 167.886719 17.621094 163.988281 22.972656 160.386719 L 24.226562 159.542969 L 24.25 120.238281 C 24.269531 98.621094 24.15625 80.75 24.011719 80.527344 C 23.871094 80.304688 19.636719 78.347656 14.601562 76.179688 C 3.535156 71.414062 0.539062 69.097656 0.539062 65.3125 C 0.539062 62.707031 2.507812 59.964844 5.871094 57.890625 C 6.898438 57.253906 21.15625 52.410156 37.554688 47.121094 C 69.214844 36.914062 124.582031 19.054688 159.589844 7.757812 C 172.78125 3.5 182.011719 0.816406 184.125 0.632812 C 187.109375 0.367188 188.828125 0.726562 198.789062 3.703125 C 204.992188 5.554688 244.203125 17.246094 285.925781 29.683594 C 327.648438 42.121094 363.929688 52.945312 366.550781 53.742188 C 372.683594 55.609375 374.476562 57.25 374.476562 61 C 374.476562 63.285156 374.210938 63.902344 372.574219 65.445312 C 371.53125 66.429688 370.164062 68.390625 369.539062 69.804688 C 368.167969 72.894531 373.585938 70.242188 322.023438 93.0625 C 299.84375 102.875 281.484375 111.109375 281.226562 111.363281 C 280.457031 112.105469 296.933594 173.054688 298.421875 174.96875 C 299.988281 176.988281 299.769531 181.367188 297.816406 187.097656 C 287.824219 216.445312 255.691406 239.738281 214.296875 247.632812 C 202.792969 249.828125 197.929688 250.230469 182.996094 250.210938 C 166.242188 250.191406 158.613281 249.277344 143.527344 245.46875 C 110.898438 237.238281 84.8125 218.710938 73.074219 195.429688 C 70.21875 189.769531 67.65625 181.867188 67.65625 178.730469 C 67.65625 176.449219 67.929688 175.847656 69.78125 174.023438 C 71.796875 172.042969 72.078125 171.289062 75.21875 159.542969 C 77.035156 152.726562 79.351562 144.109375 80.359375 140.390625 C 88.820312 109.152344 88.707031 109.632812 87.894531 108.859375 C 87.464844 108.449219 75.476562 102.980469 61.253906 96.710938 C 40.613281 87.617188 35.289062 85.472656 34.894531 86.097656 C 34.296875 87.039062 34.214844 157.582031 34.808594 158.480469 C 35.039062 158.824219 36.113281 159.558594 37.199219 160.113281 C 40.5 161.804688 42.230469 163.320312 43.988281 166.054688 C 46.367188 169.753906 47.082031 174.140625 45.996094 178.367188 C 44.871094 182.75 45.542969 191.171875 47.835938 201.507812 C 49.992188 211.210938 54.117188 236.15625 54.117188 239.476562 C 54.117188 240.867188 53.820312 242.667969 53.453125 243.472656 C 53.078125 244.289062 50.023438 246.882812 46.542969 249.34375 C 35.519531 257.125 32.488281 258.355469 27.070312 257.242188 Z M 205.984375 238.707031 C 231.089844 234.890625 252.730469 225.640625 268.441406 212.019531 C 277.15625 204.46875 284.628906 194.058594 287.601562 185.339844 L 288.921875 181.464844 L 285.679688 169.378906 C 283.894531 162.730469 280.925781 151.714844 279.082031 144.898438 C 277.234375 138.082031 274.808594 129.085938 273.6875 124.902344 C 272.566406 120.71875 271.371094 116.992188 271.03125 116.613281 C 270.5625 116.089844 261.726562 119.78125 233.191406 132.425781 C 212.71875 141.5 194.71875 149.347656 193.1875 149.867188 C 191.660156 150.386719 188.921875 150.8125 187.105469 150.8125 C 183.992188 150.8125 181.398438 149.753906 142.789062 132.703125 C 97.335938 112.636719 98.84375 113.28125 98.402344 113.722656 C 98.066406 114.054688 97.136719 117.40625 89.953125 144.054688 C 81.5 175.410156 80.601562 178.492188 79.460938 180.035156 L 78.308594 181.59375 L 79.773438 185.480469 C 87.0625 204.820312 107.453125 222.394531 133.644531 231.917969 C 143.6875 235.566406 159.453125 238.898438 171.996094 240.023438 C 178.621094 240.617188 198.488281 239.847656 205.984375 238.707031 Z M 271.546875 101.523438 C 316.835938 81.453125 354.128906 64.820312 354.417969 64.558594 C 354.707031 64.300781 354.785156 63.929688 354.597656 63.738281 C 354.402344 63.546875 332.59375 56.941406 306.128906 49.054688 C 279.664062 41.171875 241.925781 29.917969 222.269531 24.046875 C 202.613281 18.175781 185.929688 13.375 185.195312 13.375 C 184.460938 13.375 169.328125 18.058594 151.5625 23.785156 C 42.042969 59.082031 24.015625 64.976562 23.828125 65.539062 C 23.714844 65.890625 27.707031 67.976562 32.808594 70.238281 L 41.996094 74.304688 L 102.34375 70.566406 C 135.535156 68.507812 163.242188 66.714844 163.914062 66.574219 C 164.785156 66.394531 165.398438 65.550781 166.03125 63.648438 C 166.523438 62.175781 167.882812 59.703125 169.054688 58.152344 C 178.019531 46.292969 195.945312 47.679688 203.058594 60.785156 C 204.894531 64.167969 204.992188 64.636719 204.992188 69.984375 C 204.992188 76.78125 203.988281 79.414062 199.652344 83.996094 C 195.585938 88.285156 191.21875 90.175781 185.253906 90.214844 C 181.332031 90.242188 180.25 90.011719 176.984375 88.476562 C 172.902344 86.554688 169.371094 83.316406 167.347656 79.644531 C 166.261719 77.667969 165.753906 77.28125 164.0625 77.136719 C 162.964844 77.042969 147.738281 77.875 130.230469 78.976562 C 112.722656 80.082031 92.304688 81.363281 84.859375 81.820312 C 65.3125 83.023438 63.972656 83.171875 64.910156 84.054688 C 65.335938 84.453125 72.664062 87.847656 81.191406 91.589844 C 89.722656 95.335938 117.007812 107.394531 141.824219 118.390625 C 166.640625 129.382812 187.453125 138.296875 188.074219 138.199219 C 188.691406 138.101562 226.257812 121.597656 271.546875 101.523438 Z M 187.507812 79.773438 C 190.632812 78.910156 192.695312 77.3125 194.007812 74.746094 C 196.917969 69.046875 194.007812 62.480469 187.714844 60.601562 C 182.960938 59.179688 177.546875 62.164062 175.585938 67.289062 C 174.789062 69.375 174.753906 70.089844 175.351562 72.113281 C 176.164062 74.859375 178.261719 77.839844 180.058594 78.804688 C 181.066406 79.347656 183.089844 79.980469 184.96875 80.34375 C 185.125 80.371094 186.265625 80.117188 187.507812 79.773438 Z M 187.507812 79.773438 " fill-opacity="1" fill-rule="nonzero"/></g></svg>