<svg version="1.0" preserveAspectRatio="xMidYMid meet" viewBox="40.33464566929134 89.856 402.19403824521936 161.28000000000003" zoomAndPan="magnify" xmlns:xlink="http://www.w3.org/1999/xlink" xmlns="http://www.w3.org/2000/svg" style="max-height: 500px" width="402.19403824521936" height="161.28000000000003"><defs><g/><clipPath id="c95272c07b"><path clip-rule="nonzero" d="M 116 183 L 436 183 L 436 244 L 116 244 Z M 116 183"/></clipPath><clipPath id="8c333f60bc"><path clip-rule="nonzero" d="M 117.644531 182.375 L 436.507812 193.671875 L 434.703125 244.59375 L 115.839844 233.296875 Z M 117.644531 182.375"/></clipPath><clipPath id="67c960bcf4"><path clip-rule="nonzero" d="M 143.105469 183.273438 L 410.964844 192.769531 C 425.027344 193.265625 436.023438 205.070312 435.527344 219.132812 C 435.027344 233.191406 423.222656 244.1875 409.160156 243.691406 L 141.300781 234.199219 C 127.238281 233.699219 116.242188 221.894531 116.742188 207.835938 C 117.242188 193.773438 129.042969 182.777344 143.105469 183.273438 Z M 143.105469 183.273438"/></clipPath><clipPath id="452179482f"><path clip-rule="nonzero" d="M 0.101562 0 L 320 0 L 320 61 L 0.101562 61 Z M 0.101562 0"/></clipPath><clipPath id="8cc058f500"><path clip-rule="nonzero" d="M 1.644531 -0.625 L 320.507812 10.671875 L 318.703125 61.59375 L -0.160156 50.296875 Z M 1.644531 -0.625"/></clipPath><clipPath id="e4263bba77"><path clip-rule="nonzero" d="M 27.105469 0.273438 L 294.964844 9.769531 C 309.027344 10.265625 320.023438 22.070312 319.527344 36.132812 C 319.027344 50.191406 307.222656 61.1875 293.160156 60.691406 L 25.300781 51.199219 C 11.238281 50.699219 0.242188 38.894531 0.742188 24.835938 C 1.242188 10.773438 13.042969 -0.222656 27.105469 0.273438 Z M 27.105469 0.273438"/></clipPath><clipPath id="f98465dbf6"><rect height="61" y="0" width="320" x="0"/></clipPath><clipPath id="9bdc23b581"><path clip-rule="nonzero" d="M 1 27 L 144.945312 27 L 144.945312 119 L 1 119 Z M 1 27"/></clipPath><clipPath id="f4022f1a80"><rect height="131" y="0" width="145" x="0"/></clipPath></defs><g clip-path="url(#c95272c07b)"><g clip-path="url(#8c333f60bc)"><g clip-path="url(#67c960bcf4)"><g transform="matrix(1, 0, 0, 1, 116, 183)"><g clip-path="url(#f98465dbf6)"><g clip-path="url(#452179482f)"><g clip-path="url(#8cc058f500)"><g clip-path="url(#e4263bba77)"><path fill-rule="nonzero" fill-opacity="1" d="M 1.644531 -0.625 L 320.507812 10.671875 L 318.703125 61.59375 L -0.160156 50.296875 Z M 1.644531 -0.625" fill="#fcc331"/></g></g></g></g></g></g></g></g><g fill-opacity="1" fill="#1f1f1f"><g transform="translate(173.458591, 215.845077)"><g><path d="M 1.671875 0.0625 L 2.375 -19.65625 L 10.46875 -19.375 C 11.882812 -19.320312 13.113281 -19.019531 14.15625 -18.46875 C 15.207031 -17.914062 16.019531 -17.179688 16.59375 -16.265625 C 17.175781 -15.347656 17.445312 -14.300781 17.40625 -13.125 C 17.363281 -11.976562 17.019531 -10.960938 16.375 -10.078125 C 15.738281 -9.203125 14.875 -8.53125 13.78125 -8.0625 C 12.6875 -7.59375 11.441406 -7.382812 10.046875 -7.4375 L 4.234375 -7.640625 L 3.953125 0.140625 Z M 4.296875 -9.734375 L 10.109375 -9.53125 C 11.054688 -9.5 11.898438 -9.632812 12.640625 -9.9375 C 13.378906 -10.238281 13.960938 -10.671875 14.390625 -11.234375 C 14.828125 -11.804688 15.054688 -12.460938 15.078125 -13.203125 C 15.117188 -14.359375 14.707031 -15.316406 13.84375 -16.078125 C 12.976562 -16.835938 11.828125 -17.242188 10.390625 -17.296875 L 4.578125 -17.5 Z M 4.296875 -9.734375"/></g></g></g><g fill-opacity="1" fill="#1f1f1f"><g transform="translate(190.880765, 216.462472)"><g><path d="M 6 0.78125 C 4.9375 0.738281 4 0.523438 3.1875 0.140625 C 2.375 -0.242188 1.75 -0.765625 1.3125 -1.421875 C 0.875 -2.085938 0.664062 -2.835938 0.6875 -3.671875 C 0.726562 -4.816406 1.253906 -5.789062 2.265625 -6.59375 C 3.273438 -7.394531 4.929688 -7.894531 7.234375 -8.09375 L 10.75 -8.390625 C 11.101562 -8.410156 11.382812 -8.515625 11.59375 -8.703125 C 11.800781 -8.898438 11.910156 -9.144531 11.921875 -9.4375 C 11.953125 -10.320312 11.597656 -11.039062 10.859375 -11.59375 C 10.117188 -12.144531 9.128906 -12.441406 7.890625 -12.484375 C 7.015625 -12.515625 6.226562 -12.378906 5.53125 -12.078125 C 4.832031 -11.785156 4.269531 -11.382812 3.84375 -10.875 C 3.425781 -10.375 3.1875 -9.84375 3.125 -9.28125 L 1.234375 -10.15625 C 1.347656 -10.9375 1.707031 -11.65625 2.3125 -12.3125 C 2.925781 -12.96875 3.726562 -13.488281 4.71875 -13.875 C 5.71875 -14.269531 6.828125 -14.445312 8.046875 -14.40625 C 9.253906 -14.363281 10.3125 -14.117188 11.21875 -13.671875 C 12.132812 -13.222656 12.835938 -12.601562 13.328125 -11.8125 C 13.816406 -11.019531 14.046875 -10.09375 14.015625 -9.03125 L 13.75 -1.859375 C 13.738281 -1.585938 13.800781 -1.359375 13.9375 -1.171875 C 14.070312 -0.992188 14.25 -0.898438 14.46875 -0.890625 C 14.894531 -0.878906 15.289062 -1.144531 15.65625 -1.6875 L 16.75 -0.296875 C 16.4375 0.117188 16.007812 0.453125 15.46875 0.703125 C 14.925781 0.953125 14.382812 1.066406 13.84375 1.046875 C 13.15625 1.023438 12.613281 0.785156 12.21875 0.328125 C 11.832031 -0.117188 11.632812 -0.660156 11.625 -1.296875 L 11.609375 -1.9375 L 11.578125 -1.9375 C 11.046875 -1.0625 10.300781 -0.378906 9.34375 0.109375 C 8.382812 0.597656 7.269531 0.820312 6 0.78125 Z M 6.421875 -1.15625 C 7.410156 -1.113281 8.300781 -1.28125 9.09375 -1.65625 C 9.882812 -2.03125 10.515625 -2.554688 10.984375 -3.234375 C 11.460938 -3.921875 11.71875 -4.722656 11.75 -5.640625 L 11.78125 -6.640625 L 7.390625 -6.265625 C 5.691406 -6.128906 4.507812 -5.816406 3.84375 -5.328125 C 3.1875 -4.847656 2.84375 -4.28125 2.8125 -3.625 C 2.789062 -2.914062 3.113281 -2.332031 3.78125 -1.875 C 4.457031 -1.425781 5.335938 -1.1875 6.421875 -1.15625 Z M 6.421875 -1.15625"/></g></g></g><g fill-opacity="1" fill="#1f1f1f"><g transform="translate(206.205507, 217.005539)"><g><path d="M 8.359375 0.859375 C 6.835938 0.804688 5.523438 0.441406 4.421875 -0.234375 C 3.316406 -0.910156 2.472656 -1.828125 1.890625 -2.984375 C 1.304688 -4.140625 1.039062 -5.484375 1.09375 -7.015625 C 1.144531 -8.566406 1.503906 -9.894531 2.171875 -11 C 2.835938 -12.113281 3.742188 -12.96875 4.890625 -13.5625 C 6.035156 -14.15625 7.367188 -14.425781 8.890625 -14.375 C 10.410156 -14.320312 11.722656 -13.957031 12.828125 -13.28125 C 13.929688 -12.601562 14.773438 -11.6875 15.359375 -10.53125 C 15.941406 -9.382812 16.207031 -8.035156 16.15625 -6.484375 C 16.101562 -4.953125 15.742188 -3.628906 15.078125 -2.515625 C 14.410156 -1.398438 13.503906 -0.546875 12.359375 0.046875 C 11.210938 0.640625 9.878906 0.910156 8.359375 0.859375 Z M 8.421875 -1.078125 C 10.054688 -1.015625 11.378906 -1.484375 12.390625 -2.484375 C 13.398438 -3.492188 13.9375 -4.851562 14 -6.5625 C 14.0625 -8.28125 13.625 -9.671875 12.6875 -10.734375 C 11.75 -11.796875 10.460938 -12.359375 8.828125 -12.421875 C 7.179688 -12.484375 5.847656 -12.015625 4.828125 -11.015625 C 3.816406 -10.015625 3.28125 -8.65625 3.21875 -6.9375 C 3.15625 -5.226562 3.59375 -3.835938 4.53125 -2.765625 C 5.476562 -1.703125 6.773438 -1.140625 8.421875 -1.078125 Z M 8.421875 -1.078125"/></g></g></g><g fill-opacity="1" fill="#1f1f1f"><g transform="translate(222.956525, 217.59915)"><g><path d="M 1.40625 0.046875 L 2.140625 -20.5 L 4.265625 -20.421875 L 3.53125 0.125 Z M 1.40625 0.046875"/></g></g></g><g fill-opacity="1" fill="#1f1f1f"><g transform="translate(227.878365, 217.773566)"><g><path d="M 6 0.78125 C 4.9375 0.738281 4 0.523438 3.1875 0.140625 C 2.375 -0.242188 1.75 -0.765625 1.3125 -1.421875 C 0.875 -2.085938 0.664062 -2.835938 0.6875 -3.671875 C 0.726562 -4.816406 1.253906 -5.789062 2.265625 -6.59375 C 3.273438 -7.394531 4.929688 -7.894531 7.234375 -8.09375 L 10.75 -8.390625 C 11.101562 -8.410156 11.382812 -8.515625 11.59375 -8.703125 C 11.800781 -8.898438 11.910156 -9.144531 11.921875 -9.4375 C 11.953125 -10.320312 11.597656 -11.039062 10.859375 -11.59375 C 10.117188 -12.144531 9.128906 -12.441406 7.890625 -12.484375 C 7.015625 -12.515625 6.226562 -12.378906 5.53125 -12.078125 C 4.832031 -11.785156 4.269531 -11.382812 3.84375 -10.875 C 3.425781 -10.375 3.1875 -9.84375 3.125 -9.28125 L 1.234375 -10.15625 C 1.347656 -10.9375 1.707031 -11.65625 2.3125 -12.3125 C 2.925781 -12.96875 3.726562 -13.488281 4.71875 -13.875 C 5.71875 -14.269531 6.828125 -14.445312 8.046875 -14.40625 C 9.253906 -14.363281 10.3125 -14.117188 11.21875 -13.671875 C 12.132812 -13.222656 12.835938 -12.601562 13.328125 -11.8125 C 13.816406 -11.019531 14.046875 -10.09375 14.015625 -9.03125 L 13.75 -1.859375 C 13.738281 -1.585938 13.800781 -1.359375 13.9375 -1.171875 C 14.070312 -0.992188 14.25 -0.898438 14.46875 -0.890625 C 14.894531 -0.878906 15.289062 -1.144531 15.65625 -1.6875 L 16.75 -0.296875 C 16.4375 0.117188 16.007812 0.453125 15.46875 0.703125 C 14.925781 0.953125 14.382812 1.066406 13.84375 1.046875 C 13.15625 1.023438 12.613281 0.785156 12.21875 0.328125 C 11.832031 -0.117188 11.632812 -0.660156 11.625 -1.296875 L 11.609375 -1.9375 L 11.578125 -1.9375 C 11.046875 -1.0625 10.300781 -0.378906 9.34375 0.109375 C 8.382812 0.597656 7.269531 0.820312 6 0.78125 Z M 6.421875 -1.15625 C 7.410156 -1.113281 8.300781 -1.28125 9.09375 -1.65625 C 9.882812 -2.03125 10.515625 -2.554688 10.984375 -3.234375 C 11.460938 -3.921875 11.71875 -4.722656 11.75 -5.640625 L 11.78125 -6.640625 L 7.390625 -6.265625 C 5.691406 -6.128906 4.507812 -5.816406 3.84375 -5.328125 C 3.1875 -4.847656 2.84375 -4.28125 2.8125 -3.625 C 2.789062 -2.914062 3.113281 -2.332031 3.78125 -1.875 C 4.457031 -1.425781 5.335938 -1.1875 6.421875 -1.15625 Z M 6.421875 -1.15625"/></g></g></g><g fill-opacity="1" fill="#1f1f1f"><g transform="translate(244.601421, 218.366186)"><g/></g></g><g fill-opacity="1" fill="#1f1f1f"><g transform="translate(252.207899, 218.635739)"><g><path d="M 1.671875 0.0625 L 2.375 -19.65625 L 5.734375 -19.546875 L 12.328125 -2.109375 L 12.359375 -2.109375 L 20.171875 -19.03125 L 23.515625 -18.90625 L 22.8125 0.8125 L 20.5 0.71875 L 21.078125 -15.640625 L 21.015625 -15.640625 L 13.46875 0.484375 L 11.03125 0.390625 L 4.640625 -16.1875 L 4.578125 -16.1875 L 4 0.140625 Z M 1.671875 0.0625"/></g></g></g><g fill-opacity="1" fill="#1f1f1f"><g transform="translate(276.705211, 219.503857)"><g><path d="M 6 0.78125 C 4.9375 0.738281 4 0.523438 3.1875 0.140625 C 2.375 -0.242188 1.75 -0.765625 1.3125 -1.421875 C 0.875 -2.085938 0.664062 -2.835938 0.6875 -3.671875 C 0.726562 -4.816406 1.253906 -5.789062 2.265625 -6.59375 C 3.273438 -7.394531 4.929688 -7.894531 7.234375 -8.09375 L 10.75 -8.390625 C 11.101562 -8.410156 11.382812 -8.515625 11.59375 -8.703125 C 11.800781 -8.898438 11.910156 -9.144531 11.921875 -9.4375 C 11.953125 -10.320312 11.597656 -11.039062 10.859375 -11.59375 C 10.117188 -12.144531 9.128906 -12.441406 7.890625 -12.484375 C 7.015625 -12.515625 6.226562 -12.378906 5.53125 -12.078125 C 4.832031 -11.785156 4.269531 -11.382812 3.84375 -10.875 C 3.425781 -10.375 3.1875 -9.84375 3.125 -9.28125 L 1.234375 -10.15625 C 1.347656 -10.9375 1.707031 -11.65625 2.3125 -12.3125 C 2.925781 -12.96875 3.726562 -13.488281 4.71875 -13.875 C 5.71875 -14.269531 6.828125 -14.445312 8.046875 -14.40625 C 9.253906 -14.363281 10.3125 -14.117188 11.21875 -13.671875 C 12.132812 -13.222656 12.835938 -12.601562 13.328125 -11.8125 C 13.816406 -11.019531 14.046875 -10.09375 14.015625 -9.03125 L 13.75 -1.859375 C 13.738281 -1.585938 13.800781 -1.359375 13.9375 -1.171875 C 14.070312 -0.992188 14.25 -0.898438 14.46875 -0.890625 C 14.894531 -0.878906 15.289062 -1.144531 15.65625 -1.6875 L 16.75 -0.296875 C 16.4375 0.117188 16.007812 0.453125 15.46875 0.703125 C 14.925781 0.953125 14.382812 1.066406 13.84375 1.046875 C 13.15625 1.023438 12.613281 0.785156 12.21875 0.328125 C 11.832031 -0.117188 11.632812 -0.660156 11.625 -1.296875 L 11.609375 -1.9375 L 11.578125 -1.9375 C 11.046875 -1.0625 10.300781 -0.378906 9.34375 0.109375 C 8.382812 0.597656 7.269531 0.820312 6 0.78125 Z M 6.421875 -1.15625 C 7.410156 -1.113281 8.300781 -1.28125 9.09375 -1.65625 C 9.882812 -2.03125 10.515625 -2.554688 10.984375 -3.234375 C 11.460938 -3.921875 11.71875 -4.722656 11.75 -5.640625 L 11.78125 -6.640625 L 7.390625 -6.265625 C 5.691406 -6.128906 4.507812 -5.816406 3.84375 -5.328125 C 3.1875 -4.847656 2.84375 -4.28125 2.8125 -3.625 C 2.789062 -2.914062 3.113281 -2.332031 3.78125 -1.875 C 4.457031 -1.425781 5.335938 -1.1875 6.421875 -1.15625 Z M 6.421875 -1.15625"/></g></g></g><g fill-opacity="1" fill="#1f1f1f"><g transform="translate(293.428267, 220.096477)"><g><path d="M 1.40625 0.046875 L 2.140625 -20.5 L 4.265625 -20.421875 L 3.53125 0.125 Z M 1.40625 0.046875"/></g></g></g><g fill-opacity="1" fill="#1f1f1f"><g transform="translate(298.350108, 220.270894)"><g><path d="M 3.109375 0.109375 L 3.515625 -12.25 L 0.40625 -12.359375 L 0.46875 -14.109375 L 3.578125 -14 L 3.671875 -16.46875 C 3.710938 -17.769531 4.171875 -18.8125 5.046875 -19.59375 C 5.929688 -20.375 7.054688 -20.742188 8.421875 -20.703125 C 9.671875 -20.648438 10.710938 -20.269531 11.546875 -19.5625 C 12.390625 -18.851562 12.910156 -17.972656 13.109375 -16.921875 L 11.234375 -16.203125 C 11.097656 -16.929688 10.769531 -17.546875 10.25 -18.046875 C 9.738281 -18.554688 9.128906 -18.820312 8.421875 -18.84375 C 7.671875 -18.875 7.050781 -18.628906 6.5625 -18.109375 C 6.070312 -17.597656 5.8125 -16.90625 5.78125 -16.03125 L 5.703125 -13.921875 L 11.8125 -13.703125 L 11.75 -11.953125 L 5.640625 -12.171875 L 5.234375 0.1875 Z M 3.109375 0.109375"/></g></g></g><g fill-opacity="1" fill="#1f1f1f"><g transform="translate(310.850453, 220.713872)"><g><path d="M 3.28125 -16.765625 C 2.8125 -16.785156 2.4375 -16.941406 2.15625 -17.234375 C 1.882812 -17.523438 1.757812 -17.90625 1.78125 -18.375 C 1.789062 -18.84375 1.941406 -19.210938 2.234375 -19.484375 C 2.535156 -19.765625 2.921875 -19.894531 3.390625 -19.875 C 3.859375 -19.851562 4.234375 -19.695312 4.515625 -19.40625 C 4.804688 -19.113281 4.945312 -18.734375 4.9375 -18.265625 C 4.914062 -17.796875 4.75 -17.421875 4.4375 -17.140625 C 4.132812 -16.867188 3.75 -16.742188 3.28125 -16.765625 Z M 1.59375 0.0625 L 2.09375 -14.046875 L 4.21875 -13.984375 L 3.71875 0.125 Z M 1.59375 0.0625"/></g></g></g><g fill-opacity="1" fill="#1f1f1f"><g transform="translate(316.247688, 220.905136)"><g><path d="M 7.546875 0.828125 C 6.210938 0.785156 5.148438 0.34375 4.359375 -0.5 C 3.566406 -1.34375 3.195312 -2.410156 3.25 -3.703125 L 3.546875 -12.25 L 0.4375 -12.359375 L 0.5 -14.109375 L 3.609375 -14 L 3.765625 -18.203125 L 5.90625 -18.625 L 5.734375 -13.921875 L 12.0625 -13.703125 L 12 -11.953125 L 5.671875 -12.171875 L 5.375 -3.84375 C 5.34375 -3.039062 5.546875 -2.375 5.984375 -1.84375 C 6.429688 -1.3125 7.035156 -1.03125 7.796875 -1 C 8.503906 -0.976562 9.160156 -1.203125 9.765625 -1.671875 C 10.367188 -2.148438 10.753906 -2.847656 10.921875 -3.765625 L 12.625 -2.984375 C 12.457031 -2.160156 12.128906 -1.457031 11.640625 -0.875 C 11.148438 -0.289062 10.546875 0.144531 9.828125 0.4375 C 9.109375 0.726562 8.347656 0.859375 7.546875 0.828125 Z M 7.546875 0.828125"/></g></g></g><g fill-opacity="1" fill="#1f1f1f"><g transform="translate(329.419213, 221.371899)"><g><path d="M 6 0.78125 C 4.9375 0.738281 4 0.523438 3.1875 0.140625 C 2.375 -0.242188 1.75 -0.765625 1.3125 -1.421875 C 0.875 -2.085938 0.664062 -2.835938 0.6875 -3.671875 C 0.726562 -4.816406 1.253906 -5.789062 2.265625 -6.59375 C 3.273438 -7.394531 4.929688 -7.894531 7.234375 -8.09375 L 10.75 -8.390625 C 11.101562 -8.410156 11.382812 -8.515625 11.59375 -8.703125 C 11.800781 -8.898438 11.910156 -9.144531 11.921875 -9.4375 C 11.953125 -10.320312 11.597656 -11.039062 10.859375 -11.59375 C 10.117188 -12.144531 9.128906 -12.441406 7.890625 -12.484375 C 7.015625 -12.515625 6.226562 -12.378906 5.53125 -12.078125 C 4.832031 -11.785156 4.269531 -11.382812 3.84375 -10.875 C 3.425781 -10.375 3.1875 -9.84375 3.125 -9.28125 L 1.234375 -10.15625 C 1.347656 -10.9375 1.707031 -11.65625 2.3125 -12.3125 C 2.925781 -12.96875 3.726562 -13.488281 4.71875 -13.875 C 5.71875 -14.269531 6.828125 -14.445312 8.046875 -14.40625 C 9.253906 -14.363281 10.3125 -14.117188 11.21875 -13.671875 C 12.132812 -13.222656 12.835938 -12.601562 13.328125 -11.8125 C 13.816406 -11.019531 14.046875 -10.09375 14.015625 -9.03125 L 13.75 -1.859375 C 13.738281 -1.585938 13.800781 -1.359375 13.9375 -1.171875 C 14.070312 -0.992188 14.25 -0.898438 14.46875 -0.890625 C 14.894531 -0.878906 15.289062 -1.144531 15.65625 -1.6875 L 16.75 -0.296875 C 16.4375 0.117188 16.007812 0.453125 15.46875 0.703125 C 14.925781 0.953125 14.382812 1.066406 13.84375 1.046875 C 13.15625 1.023438 12.613281 0.785156 12.21875 0.328125 C 11.832031 -0.117188 11.632812 -0.660156 11.625 -1.296875 L 11.609375 -1.9375 L 11.578125 -1.9375 C 11.046875 -1.0625 10.300781 -0.378906 9.34375 0.109375 C 8.382812 0.597656 7.269531 0.820312 6 0.78125 Z M 6.421875 -1.15625 C 7.410156 -1.113281 8.300781 -1.28125 9.09375 -1.65625 C 9.882812 -2.03125 10.515625 -2.554688 10.984375 -3.234375 C 11.460938 -3.921875 11.71875 -4.722656 11.75 -5.640625 L 11.78125 -6.640625 L 7.390625 -6.265625 C 5.691406 -6.128906 4.507812 -5.816406 3.84375 -5.328125 C 3.1875 -4.847656 2.84375 -4.28125 2.8125 -3.625 C 2.789062 -2.914062 3.113281 -2.332031 3.78125 -1.875 C 4.457031 -1.425781 5.335938 -1.1875 6.421875 -1.15625 Z M 6.421875 -1.15625"/></g></g></g><g fill-opacity="1" fill="#1f1f1f"><g transform="translate(346.14227, 221.964519)"><g><path d="M 9.5 -14.359375 C 11.125 -14.296875 12.382812 -13.757812 13.28125 -12.75 C 14.175781 -11.75 14.59375 -10.375 14.53125 -8.625 L 14.203125 0.5 L 12.0625 0.421875 L 12.375 -8.484375 C 12.414062 -9.691406 12.117188 -10.65625 11.484375 -11.375 C 10.847656 -12.101562 9.96875 -12.488281 8.84375 -12.53125 C 7.894531 -12.5625 7.046875 -12.382812 6.296875 -12 C 5.554688 -11.625 4.960938 -11.082031 4.515625 -10.375 C 4.078125 -9.664062 3.84375 -8.820312 3.8125 -7.84375 L 3.53125 0.125 L 1.40625 0.046875 L 1.90625 -14.0625 L 3.828125 -13.984375 L 3.953125 -11.90625 L 3.96875 -11.90625 C 4.601562 -12.738281 5.375 -13.363281 6.28125 -13.78125 C 7.195312 -14.207031 8.269531 -14.398438 9.5 -14.359375 Z M 9.5 -14.359375"/></g></g></g><g fill-opacity="1" fill="#1f1f1f"><g transform="translate(361.606897, 222.512543)"><g><path d="M 8.359375 0.859375 C 6.835938 0.804688 5.523438 0.441406 4.421875 -0.234375 C 3.316406 -0.910156 2.472656 -1.828125 1.890625 -2.984375 C 1.304688 -4.140625 1.039062 -5.484375 1.09375 -7.015625 C 1.144531 -8.566406 1.503906 -9.894531 2.171875 -11 C 2.835938 -12.113281 3.742188 -12.96875 4.890625 -13.5625 C 6.035156 -14.15625 7.367188 -14.425781 8.890625 -14.375 C 10.410156 -14.320312 11.722656 -13.957031 12.828125 -13.28125 C 13.929688 -12.601562 14.773438 -11.6875 15.359375 -10.53125 C 15.941406 -9.382812 16.207031 -8.035156 16.15625 -6.484375 C 16.101562 -4.953125 15.742188 -3.628906 15.078125 -2.515625 C 14.410156 -1.398438 13.503906 -0.546875 12.359375 0.046875 C 11.210938 0.640625 9.878906 0.910156 8.359375 0.859375 Z M 8.421875 -1.078125 C 10.054688 -1.015625 11.378906 -1.484375 12.390625 -2.484375 C 13.398438 -3.492188 13.9375 -4.851562 14 -6.5625 C 14.0625 -8.28125 13.625 -9.671875 12.6875 -10.734375 C 11.75 -11.796875 10.460938 -12.359375 8.828125 -12.421875 C 7.179688 -12.484375 5.847656 -12.015625 4.828125 -11.015625 C 3.816406 -10.015625 3.28125 -8.65625 3.21875 -6.9375 C 3.15625 -5.226562 3.59375 -3.835938 4.53125 -2.765625 C 5.476562 -1.703125 6.773438 -1.140625 8.421875 -1.078125 Z M 8.421875 -1.078125"/></g></g></g><g fill-opacity="1" fill="#1f1f1f"><g transform="translate(119.597265, 163.514822)"><g><path d="M 23.28125 0.859375 C 20.945312 0.859375 18.585938 0.429688 16.203125 -0.421875 C 13.816406 -1.273438 11.628906 -2.566406 9.640625 -4.296875 C 7.648438 -6.035156 6.054688 -8.210938 4.859375 -10.828125 C 3.660156 -13.441406 3.0625 -16.515625 3.0625 -20.046875 C 3.0625 -24.703125 4.097656 -28.765625 6.171875 -32.234375 C 8.253906 -35.703125 11 -38.398438 14.40625 -40.328125 C 17.820312 -42.265625 21.519531 -43.234375 25.5 -43.234375 C 29.082031 -43.234375 32.140625 -42.535156 34.671875 -41.140625 C 37.203125 -39.753906 39.160156 -37.921875 40.546875 -35.640625 C 41.941406 -33.367188 42.664062 -30.867188 42.71875 -28.140625 L 9.375 -28.140625 C 9.207031 -26.890625 9.125 -25.582031 9.125 -24.21875 C 9.125 -20.351562 9.875 -16.925781 11.375 -13.9375 C 12.882812 -10.957031 15.019531 -8.640625 17.78125 -6.984375 C 20.539062 -5.335938 23.765625 -4.515625 27.453125 -4.515625 C 30.753906 -4.515625 33.625 -5.195312 36.0625 -6.5625 C 38.507812 -7.925781 40.703125 -9.71875 42.640625 -11.9375 L 43.40625 -11.171875 C 41.988281 -9.179688 40.285156 -7.257812 38.296875 -5.40625 C 36.304688 -3.5625 34.070312 -2.054688 31.59375 -0.890625 C 29.125 0.273438 26.351562 0.859375 23.28125 0.859375 Z M 9.640625 -29.25 L 35.90625 -29.25 C 35.625 -31.1875 34.925781 -33.101562 33.8125 -35 C 32.707031 -36.90625 31.226562 -38.5 29.375 -39.78125 C 27.53125 -41.0625 25.300781 -41.703125 22.6875 -41.703125 C 19.050781 -41.753906 16.132812 -40.585938 13.9375 -38.203125 C 11.75 -35.816406 10.316406 -32.832031 9.640625 -29.25 Z M 9.640625 -29.25"/></g></g></g><g fill-opacity="1" fill="#1f1f1f"><g transform="translate(164.96763, 163.514822)"><g><path d="M 3.234375 0 L 3.234375 -1.109375 C 4.546875 -1.503906 5.441406 -2.351562 5.921875 -3.65625 C 6.410156 -4.96875 6.65625 -7.359375 6.65625 -10.828125 L 6.65625 -56.03125 C 6.65625 -58.019531 6.523438 -59.507812 6.265625 -60.5 C 6.015625 -61.5 5.644531 -62.222656 5.15625 -62.671875 C 4.675781 -63.128906 4.035156 -63.53125 3.234375 -63.875 L 3.234375 -64.8125 L 12.53125 -68.90625 L 13.296875 -68.3125 L 13.296875 -10.828125 C 13.296875 -7.359375 13.535156 -4.96875 14.015625 -3.65625 C 14.503906 -2.351562 15.40625 -1.503906 16.71875 -1.109375 L 16.71875 0 Z M 3.234375 0"/></g></g></g><g fill-opacity="1" fill="#1f1f1f"><g transform="translate(185.179624, 163.514822)"><g><path d="M 3.234375 0 L 3.234375 -1.109375 C 4.546875 -1.503906 5.441406 -2.351562 5.921875 -3.65625 C 6.410156 -4.96875 6.65625 -7.359375 6.65625 -10.828125 L 6.65625 -56.03125 C 6.65625 -58.019531 6.523438 -59.507812 6.265625 -60.5 C 6.015625 -61.5 5.644531 -62.222656 5.15625 -62.671875 C 4.675781 -63.128906 4.035156 -63.53125 3.234375 -63.875 L 3.234375 -64.8125 L 12.53125 -68.90625 L 13.296875 -68.3125 L 13.296875 -10.828125 C 13.296875 -7.359375 13.535156 -4.96875 14.015625 -3.65625 C 14.503906 -2.351562 15.40625 -1.503906 16.71875 -1.109375 L 16.71875 0 Z M 3.234375 0"/></g></g></g><g fill-opacity="1" fill="#1f1f1f"><g transform="translate(205.391618, 163.514822)"><g><path d="M 25.40625 0.859375 C 22.675781 0.859375 19.988281 0.429688 17.34375 -0.421875 C 14.707031 -1.273438 12.304688 -2.582031 10.140625 -4.34375 C 7.984375 -6.113281 6.265625 -8.363281 4.984375 -11.09375 C 3.703125 -13.820312 3.0625 -17.03125 3.0625 -20.71875 C 3.0625 -25.15625 4.113281 -29.066406 6.21875 -32.453125 C 8.320312 -35.835938 11.078125 -38.476562 14.484375 -40.375 C 17.898438 -42.28125 21.539062 -43.234375 25.40625 -43.234375 C 28.082031 -43.234375 30.726562 -42.820312 33.34375 -42 C 35.957031 -41.175781 38.34375 -39.882812 40.5 -38.125 C 42.664062 -36.363281 44.398438 -34.117188 45.703125 -31.390625 C 47.015625 -28.660156 47.671875 -25.390625 47.671875 -21.578125 C 47.671875 -17.941406 47 -14.726562 45.65625 -11.9375 C 44.320312 -9.15625 42.546875 -6.8125 40.328125 -4.90625 C 38.117188 -3 35.707031 -1.5625 33.09375 -0.59375 C 30.476562 0.375 27.914062 0.859375 25.40625 0.859375 Z M 9.640625 -25.578125 C 9.640625 -22.847656 10.0625 -20.046875 10.90625 -17.171875 C 11.757812 -14.304688 12.984375 -11.648438 14.578125 -9.203125 C 16.171875 -6.765625 18.085938 -4.773438 20.328125 -3.234375 C 22.578125 -1.703125 25.125 -0.9375 27.96875 -0.9375 C 31.039062 -0.9375 33.539062 -1.660156 35.46875 -3.109375 C 37.40625 -4.554688 38.84375 -6.472656 39.78125 -8.859375 C 40.71875 -11.253906 41.1875 -13.816406 41.1875 -16.546875 C 41.1875 -19.273438 40.734375 -22.128906 39.828125 -25.109375 C 38.921875 -28.097656 37.628906 -30.867188 35.953125 -33.421875 C 34.273438 -35.984375 32.269531 -38.03125 29.9375 -39.5625 C 27.601562 -41.101562 25.046875 -41.789062 22.265625 -41.625 C 19.359375 -41.507812 16.96875 -40.710938 15.09375 -39.234375 C 13.21875 -37.753906 11.835938 -35.816406 10.953125 -33.421875 C 10.078125 -31.035156 9.640625 -28.421875 9.640625 -25.578125 Z M 9.640625 -25.578125"/></g></g></g><g fill-opacity="1" fill="#1f1f1f"><g transform="translate(256.731786, 163.514822)"><g/></g></g><g fill-opacity="1" fill="#1f1f1f"><g transform="translate(274.641151, 163.514822)"><g><path d="M 9.046875 -13.5625 L 5.203125 -54.5 L 12.96875 -59.1875 L 13.46875 -58.84375 L 10.0625 -13.5625 Z M 5.109375 -4.015625 C 5.109375 -5.265625 5.550781 -6.328125 6.4375 -7.203125 C 7.320312 -8.085938 8.359375 -8.53125 9.546875 -8.53125 C 10.742188 -8.53125 11.769531 -8.085938 12.625 -7.203125 C 13.476562 -6.328125 13.90625 -5.265625 13.90625 -4.015625 C 13.90625 -2.753906 13.476562 -1.671875 12.625 -0.765625 C 11.769531 0.140625 10.742188 0.59375 9.546875 0.59375 C 8.359375 0.59375 7.320312 0.140625 6.4375 -0.765625 C 5.550781 -1.671875 5.109375 -2.753906 5.109375 -4.015625 Z M 5.109375 -4.015625"/></g></g></g><g fill-opacity="1" fill="#1f1f1f"><g transform="translate(293.659182, 163.514822)"><g/></g></g><g fill-opacity="1" fill="#1f1f1f"><g transform="translate(311.568547, 163.514822)"><g><path d="M 4.34375 0 L 4.34375 -1.109375 C 5.65625 -1.503906 6.550781 -2.351562 7.03125 -3.65625 C 7.519531 -4.96875 7.765625 -7.359375 7.765625 -10.828125 L 7.765625 -48.859375 C 7.765625 -52.390625 7.519531 -54.789062 7.03125 -56.0625 C 6.550781 -57.34375 5.65625 -58.1875 4.34375 -58.59375 L 4.34375 -59.703125 L 18.171875 -59.703125 L 18.171875 -58.59375 C 16.859375 -58.1875 15.957031 -57.34375 15.46875 -56.0625 C 14.988281 -54.789062 14.75 -52.390625 14.75 -48.859375 L 14.75 -10.828125 C 14.75 -7.359375 14.988281 -4.96875 15.46875 -3.65625 C 15.957031 -2.351562 16.859375 -1.503906 18.171875 -1.109375 L 18.171875 0 Z M 4.34375 0"/></g></g></g><g fill-opacity="1" fill="#1f1f1f"><g transform="translate(334.083169, 163.514822)"><g><path d="M 2.5625 -42.46875 C 4.78125 -43.601562 6.414062 -45.132812 7.46875 -47.0625 C 8.519531 -49 9.097656 -51.050781 9.203125 -53.21875 C 8.867188 -53.101562 8.546875 -53 8.234375 -52.90625 C 7.921875 -52.820312 7.5625 -52.78125 7.15625 -52.78125 C 6.019531 -52.78125 5.039062 -53.191406 4.21875 -54.015625 C 3.394531 -54.847656 2.984375 -55.832031 2.984375 -56.96875 C 2.984375 -58.382812 3.410156 -59.546875 4.265625 -60.453125 C 5.117188 -61.367188 6.226562 -61.828125 7.59375 -61.828125 C 9.238281 -61.828125 10.554688 -61.257812 11.546875 -60.125 C 12.546875 -58.988281 13.019531 -57.367188 12.96875 -55.265625 C 12.96875 -53.210938 12.484375 -51.265625 11.515625 -49.421875 C 10.546875 -47.578125 9.289062 -45.984375 7.75 -44.640625 C 6.21875 -43.304688 4.601562 -42.328125 2.90625 -41.703125 Z M 2.5625 -42.46875"/></g></g></g><g fill-opacity="1" fill="#1f1f1f"><g transform="translate(351.310273, 163.514822)"><g><path d="M 2.734375 0 L 2.734375 -1.109375 C 4.035156 -1.503906 4.925781 -2.351562 5.40625 -3.65625 C 5.894531 -4.96875 6.140625 -7.359375 6.140625 -10.828125 L 6.140625 -30.453125 C 6.140625 -32.441406 6.007812 -33.929688 5.75 -34.921875 C 5.5 -35.921875 5.128906 -36.644531 4.640625 -37.09375 C 4.160156 -37.550781 3.523438 -37.953125 2.734375 -38.296875 L 2.734375 -39.234375 L 12.03125 -43.328125 L 12.796875 -42.71875 L 12.796875 -35.484375 C 15.347656 -37.523438 18.160156 -39.328125 21.234375 -40.890625 C 24.304688 -42.453125 27.378906 -43.234375 30.453125 -43.234375 C 36.867188 -43.234375 40.816406 -40.5625 42.296875 -35.21875 C 44.859375 -37.269531 47.71875 -39.117188 50.875 -40.765625 C 54.03125 -42.410156 57.195312 -43.234375 60.375 -43.234375 C 64.53125 -43.234375 67.660156 -42.082031 69.765625 -39.78125 C 71.867188 -37.476562 72.921875 -33.910156 72.921875 -29.078125 L 72.921875 -10.828125 C 72.921875 -7.359375 73.175781 -4.96875 73.6875 -3.65625 C 74.195312 -2.351562 75.078125 -1.503906 76.328125 -1.109375 L 76.328125 0 L 62.859375 0 L 62.859375 -1.109375 C 64.160156 -1.503906 65.050781 -2.351562 65.53125 -3.65625 C 66.019531 -4.96875 66.265625 -7.359375 66.265625 -10.828125 L 66.265625 -27.546875 C 66.265625 -36.128906 63.023438 -40.421875 56.546875 -40.421875 C 54.097656 -40.421875 51.734375 -39.820312 49.453125 -38.625 C 47.179688 -37.4375 44.882812 -35.929688 42.5625 -34.109375 C 42.894531 -32.691406 43.0625 -31.015625 43.0625 -29.078125 L 43.0625 -10.828125 C 43.0625 -7.359375 43.300781 -4.96875 43.78125 -3.65625 C 44.269531 -2.351562 45.171875 -1.503906 46.484375 -1.109375 L 46.484375 0 L 33 0 L 33 -1.109375 C 34.3125 -1.503906 35.207031 -2.351562 35.6875 -3.65625 C 36.175781 -4.96875 36.421875 -7.359375 36.421875 -10.828125 L 36.421875 -27.546875 C 36.421875 -36.128906 33.175781 -40.421875 26.6875 -40.421875 C 24.25 -40.421875 21.90625 -39.835938 19.65625 -38.671875 C 17.40625 -37.503906 15.117188 -36.039062 12.796875 -34.28125 L 12.796875 -10.828125 C 12.796875 -7.359375 13.035156 -4.96875 13.515625 -3.65625 C 13.992188 -2.351562 14.890625 -1.503906 16.203125 -1.109375 L 16.203125 0 Z M 2.734375 0"/></g></g></g><g transform="matrix(1, 0, 0, 1, 46, 70)"><g clip-path="url(#f4022f1a80)"><g clip-path="url(#9bdc23b581)"><g fill-opacity="1" fill="#1f1f1f"><g transform="translate(11.571904, 91.311546)"><g><path d="M 96.171875 11.078125 C 99.992188 11.078125 103.53125 11.378906 106.78125 11.984375 C 110.039062 12.597656 113.125 13.535156 116.03125 14.796875 C 118.945312 16.054688 121.773438 17.660156 124.515625 19.609375 C 127.253906 21.566406 129.96875 23.890625 132.65625 26.578125 L 132.140625 27.234375 C 129.617188 25.066406 126.75 23.242188 123.53125 21.765625 C 120.320312 20.285156 116.976562 19.132812 113.5 18.3125 C 110.03125 17.488281 106.535156 16.898438 103.015625 16.546875 C 99.492188 16.203125 96.125 16.03125 92.90625 16.03125 C 87.957031 16.03125 83.09375 16.332031 78.3125 16.9375 C 73.539062 17.550781 68.722656 18.25 63.859375 19.03125 L 55.640625 20.328125 C 50.859375 21.109375 46.054688 21.800781 41.234375 22.40625 C 36.421875 23.019531 31.535156 23.328125 26.578125 23.328125 C 21.972656 23.328125 17.457031 22.675781 13.03125 21.375 C 8.601562 20.070312 4.648438 18.140625 1.171875 15.578125 C -2.304688 13.015625 -5.109375 9.796875 -7.234375 5.921875 C -9.359375 2.054688 -10.421875 -2.4375 -10.421875 -7.5625 C -10.421875 -10.6875 -9.984375 -13.742188 -9.109375 -16.734375 C -8.242188 -19.734375 -6.984375 -22.492188 -5.328125 -25.015625 C -3.679688 -27.535156 -1.664062 -29.796875 0.71875 -31.796875 C 3.101562 -33.796875 5.773438 -35.359375 8.734375 -36.484375 L 8.734375 -55.78125 C 8.734375 -57.507812 8.40625 -59.15625 7.75 -60.71875 C 7.101562 -62.289062 5.867188 -63.335938 4.046875 -63.859375 L 21.234375 -63.859375 C 19.328125 -63.335938 18.066406 -62.289062 17.453125 -60.71875 C 16.847656 -59.15625 16.546875 -57.507812 16.546875 -55.78125 L 16.546875 -38.4375 C 17.503906 -38.695312 18.457031 -38.867188 19.40625 -38.953125 C 20.363281 -39.046875 21.320312 -39.09375 22.28125 -39.09375 C 26.96875 -39.09375 31.394531 -38.332031 35.5625 -36.8125 C 39.738281 -35.289062 43.476562 -32.878906 46.78125 -29.578125 L 46.78125 -55.90625 C 46.78125 -57.644531 46.453125 -59.273438 45.796875 -60.796875 C 45.148438 -62.316406 43.914062 -63.335938 42.09375 -63.859375 L 59.296875 -63.859375 C 57.378906 -63.335938 56.113281 -62.316406 55.5 -60.796875 C 54.894531 -59.273438 54.59375 -57.644531 54.59375 -55.90625 L 54.59375 -8.078125 C 54.59375 -6.335938 54.941406 -4.6875 55.640625 -3.125 C 56.335938 -1.5625 57.554688 -0.519531 59.296875 0 L 42.09375 0 C 43.914062 -0.519531 45.148438 -1.582031 45.796875 -3.1875 C 46.453125 -4.800781 46.78125 -6.472656 46.78125 -8.203125 L 46.78125 -28.140625 C 43.820312 -31.015625 40.472656 -33.296875 36.734375 -34.984375 C 33.003906 -36.679688 29.054688 -37.53125 24.890625 -37.53125 C 23.410156 -37.53125 22 -37.507812 20.65625 -37.46875 C 19.3125 -37.425781 17.941406 -37.226562 16.546875 -36.875 L 16.546875 -8.078125 C 16.546875 -6.335938 16.867188 -4.6875 17.515625 -3.125 C 18.171875 -1.5625 19.410156 -0.519531 21.234375 0 L 4.046875 0 C 5.867188 -0.519531 7.101562 -1.582031 7.75 -3.1875 C 8.40625 -4.800781 8.734375 -6.472656 8.734375 -8.203125 L 8.734375 -34.265625 C 3.253906 -31.492188 -0.609375 -27.539062 -2.859375 -22.40625 C -5.117188 -17.28125 -6.25 -11.8125 -6.25 -6 C -6.25 -1.21875 -5.269531 2.953125 -3.3125 6.515625 C -1.363281 10.078125 1.191406 13.03125 4.359375 15.375 C 7.535156 17.71875 11.1875 19.453125 15.3125 20.578125 C 19.4375 21.710938 23.628906 22.28125 27.890625 22.28125 C 33.097656 22.28125 38.15625 21.820312 43.0625 20.90625 C 47.976562 20 52.910156 18.9375 57.859375 17.71875 L 66.203125 15.640625 C 71.148438 14.421875 76.078125 13.351562 80.984375 12.4375 C 85.898438 11.53125 90.960938 11.078125 96.171875 11.078125 Z M 96.171875 11.078125"/></g></g></g></g></g></g></svg>