<svg xmlns="http://www.w3.org/2000/svg" xmlns:xlink="http://www.w3.org/1999/xlink" width="286" zoomAndPan="magnify" viewBox="0 0 214.5 260.250006" height="347" preserveAspectRatio="xMidYMid meet" version="1.0"><defs><clipPath id="33e0ea7b4e"><path d="M 0.0585938 2 L 213.941406 2 L 213.941406 259.503906 L 0.0585938 259.503906 Z M 0.0585938 2 " clip-rule="nonzero"/></clipPath></defs><path fill="#000000" d="M 128.273438 75.347656 L 99.132812 104.515625 L 86.183594 91.550781 C 85.972656 91.34375 85.738281 91.160156 85.488281 91 C 85.242188 90.839844 84.976562 90.707031 84.703125 90.597656 C 84.425781 90.488281 84.144531 90.40625 83.851562 90.351562 C 83.5625 90.296875 83.265625 90.269531 82.96875 90.273438 C 82.675781 90.277344 82.378906 90.308594 82.089844 90.367188 C 81.800781 90.429688 81.519531 90.515625 81.246094 90.628906 C 80.972656 90.746094 80.710938 90.886719 80.464844 91.050781 C 80.21875 91.214844 79.992188 91.402344 79.78125 91.613281 C 79.574219 91.824219 79.386719 92.050781 79.21875 92.296875 C 79.054688 92.542969 78.914062 92.804688 78.800781 93.078125 C 78.683594 93.351562 78.597656 93.632812 78.539062 93.925781 C 78.476562 94.214844 78.445312 94.507812 78.441406 94.804688 C 78.441406 95.101562 78.464844 95.394531 78.519531 95.6875 C 78.574219 95.980469 78.65625 96.261719 78.765625 96.539062 C 78.875 96.816406 79.011719 97.078125 79.171875 97.328125 C 79.332031 97.578125 79.511719 97.808594 79.71875 98.023438 L 95.902344 114.222656 C 96.113281 114.433594 96.347656 114.625 96.59375 114.789062 C 96.84375 114.953125 97.109375 115.09375 97.386719 115.207031 C 97.664062 115.320312 97.949219 115.410156 98.242188 115.464844 C 98.539062 115.523438 98.835938 115.554688 99.132812 115.554688 C 99.433594 115.554688 99.730469 115.523438 100.023438 115.464844 C 100.320312 115.410156 100.605469 115.320312 100.882812 115.207031 C 101.160156 115.09375 101.421875 114.953125 101.671875 114.789062 C 101.921875 114.625 102.152344 114.433594 102.367188 114.222656 L 134.742188 81.820312 C 134.945312 81.605469 135.128906 81.375 135.289062 81.125 C 135.453125 80.875 135.585938 80.613281 135.695312 80.335938 C 135.804688 80.0625 135.886719 79.777344 135.941406 79.484375 C 135.996094 79.191406 136.023438 78.898438 136.019531 78.601562 C 136.019531 78.304688 135.988281 78.011719 135.925781 77.71875 C 135.867188 77.429688 135.78125 77.148438 135.664062 76.871094 C 135.550781 76.597656 135.410156 76.339844 135.246094 76.09375 C 135.078125 75.84375 134.890625 75.617188 134.679688 75.40625 C 134.472656 75.199219 134.242188 75.007812 133.996094 74.84375 C 133.75 74.679688 133.492188 74.539062 133.21875 74.421875 C 132.945312 74.308594 132.660156 74.222656 132.371094 74.160156 C 132.082031 74.101562 131.785156 74.070312 131.488281 74.066406 C 131.191406 74.0625 130.898438 74.089844 130.605469 74.144531 C 130.316406 74.199219 130.03125 74.28125 129.757812 74.390625 C 129.480469 74.5 129.21875 74.636719 128.96875 74.796875 C 128.71875 74.957031 128.488281 75.140625 128.273438 75.347656 Z M 128.273438 75.347656 " fill-opacity="1" fill-rule="nonzero"/><path fill="#000000" d="M 166.398438 94.785156 C 166.394531 92.84375 166.300781 90.910156 166.109375 88.980469 C 165.917969 87.050781 165.632812 85.136719 165.253906 83.234375 C 164.875 81.332031 164.40625 79.453125 163.839844 77.597656 C 163.277344 75.742188 162.625 73.917969 161.882812 72.125 C 161.140625 70.335938 160.3125 68.585938 159.398438 66.875 C 158.484375 65.164062 157.492188 63.503906 156.414062 61.890625 C 155.335938 60.277344 154.183594 58.722656 152.957031 57.222656 C 151.726562 55.726562 150.425781 54.289062 149.054688 52.917969 C 147.6875 51.546875 146.253906 50.246094 144.753906 49.015625 C 143.257812 47.785156 141.703125 46.632812 140.09375 45.554688 C 138.480469 44.476562 136.820312 43.480469 135.113281 42.566406 C 133.40625 41.652344 131.65625 40.824219 129.867188 40.078125 C 128.078125 39.335938 126.253906 38.683594 124.402344 38.121094 C 122.546875 37.554688 120.667969 37.085938 118.769531 36.707031 C 116.871094 36.328125 114.957031 36.042969 113.027344 35.851562 C 111.097656 35.660156 109.167969 35.5625 107.230469 35.5625 C 28.730469 38.78125 28.75 150.800781 107.230469 154.007812 C 109.167969 154.007812 111.101562 153.910156 113.027344 153.71875 C 114.957031 153.527344 116.871094 153.242188 118.769531 152.863281 C 120.671875 152.484375 122.546875 152.011719 124.402344 151.449219 C 126.253906 150.886719 128.078125 150.230469 129.867188 149.488281 C 131.65625 148.746094 133.40625 147.917969 135.113281 147.003906 C 136.820312 146.089844 138.480469 145.09375 140.09375 144.015625 C 141.703125 142.9375 143.257812 141.785156 144.753906 140.554688 C 146.253906 139.324219 147.6875 138.023438 149.054688 136.648438 C 150.425781 135.277344 151.726562 133.84375 152.957031 132.34375 C 154.183594 130.847656 155.335938 129.289062 156.414062 127.679688 C 157.492188 126.066406 158.484375 124.40625 159.398438 122.695312 C 160.3125 120.984375 161.140625 119.234375 161.882812 117.441406 C 162.625 115.652344 163.277344 113.828125 163.839844 111.972656 C 164.40625 110.117188 164.875 108.238281 165.253906 106.335938 C 165.632812 104.433594 165.917969 102.519531 166.109375 100.589844 C 166.300781 98.660156 166.394531 96.722656 166.398438 94.785156 Z M 107.230469 144.855469 C 105.589844 144.855469 103.957031 144.773438 102.328125 144.613281 C 100.695312 144.449219 99.078125 144.210938 97.472656 143.890625 C 95.863281 143.570312 94.277344 143.171875 92.710938 142.695312 C 91.140625 142.21875 89.601562 141.667969 88.089844 141.039062 C 86.574219 140.414062 85.09375 139.710938 83.652344 138.9375 C 82.207031 138.164062 80.804688 137.324219 79.441406 136.414062 C 78.078125 135.5 76.765625 134.527344 75.5 133.484375 C 74.230469 132.445312 73.019531 131.34375 71.859375 130.1875 C 70.703125 129.027344 69.605469 127.8125 68.5625 126.546875 C 67.523438 125.277344 66.550781 123.960938 65.640625 122.597656 C 64.730469 121.234375 63.886719 119.832031 63.117188 118.386719 C 62.34375 116.9375 61.644531 115.457031 61.015625 113.945312 C 60.390625 112.429688 59.839844 110.886719 59.363281 109.316406 C 58.886719 107.75 58.488281 106.160156 58.167969 104.550781 C 57.847656 102.945312 57.609375 101.324219 57.449219 99.691406 C 57.285156 98.058594 57.207031 96.425781 57.207031 94.785156 C 59.9375 28.355469 154.53125 28.375 157.253906 94.785156 C 157.253906 96.425781 157.171875 98.058594 157.011719 99.691406 C 156.851562 101.324219 156.609375 102.945312 156.289062 104.550781 C 155.96875 106.160156 155.570312 107.75 155.097656 109.316406 C 154.621094 110.886719 154.070312 112.429688 153.441406 113.945312 C 152.8125 115.457031 152.113281 116.9375 151.34375 118.386719 C 150.570312 119.832031 149.730469 121.234375 148.820312 122.597656 C 147.90625 123.960938 146.933594 125.277344 145.894531 126.546875 C 144.855469 127.8125 143.757812 129.027344 142.597656 130.1875 C 141.4375 131.34375 140.226562 132.445312 138.960938 133.484375 C 137.695312 134.527344 136.378906 135.5 135.019531 136.414062 C 133.65625 137.324219 132.253906 138.164062 130.808594 138.9375 C 129.363281 139.710938 127.882812 140.414062 126.371094 141.039062 C 124.855469 141.667969 123.316406 142.21875 121.75 142.695312 C 120.179688 143.171875 118.59375 143.570312 116.988281 143.890625 C 115.378906 144.210938 113.761719 144.449219 112.132812 144.613281 C 110.5 144.773438 108.867188 144.855469 107.230469 144.855469 Z M 107.230469 144.855469 " fill-opacity="1" fill-rule="nonzero"/><g clip-path="url(#33e0ea7b4e)"><path fill="#000000" d="M 213.128906 221.652344 L 180.023438 164.214844 C 177.960938 165.390625 175.8125 166.382812 173.578125 167.1875 C 172.910156 167.421875 172.269531 167.710938 171.65625 168.058594 L 198.542969 214.695312 L 164.796875 200.964844 C 164.476562 200.835938 164.144531 200.742188 163.800781 200.691406 C 163.457031 200.636719 163.113281 200.621094 162.769531 200.644531 C 162.421875 200.671875 162.082031 200.734375 161.75 200.835938 C 161.421875 200.9375 161.105469 201.078125 160.804688 201.25 C 160.503906 201.425781 160.226562 201.632812 159.976562 201.867188 C 159.722656 202.105469 159.5 202.371094 159.308594 202.65625 C 159.113281 202.945312 158.957031 203.253906 158.832031 203.578125 C 158.710938 203.902344 158.625 204.238281 158.578125 204.582031 L 153.550781 240.644531 C 149.382812 233.40625 125.808594 192.578125 122.273438 186.410156 C 123.972656 186.679688 125.683594 186.816406 127.40625 186.828125 C 129.125 186.835938 130.835938 186.71875 132.539062 186.46875 C 134.242188 186.21875 135.917969 185.84375 137.5625 185.34375 C 139.210938 184.839844 140.808594 184.21875 142.363281 183.472656 C 143.914062 182.730469 145.402344 181.875 146.828125 180.90625 C 148.25 179.9375 149.59375 178.867188 150.855469 177.699219 C 152.117188 176.527344 153.285156 175.269531 154.355469 173.921875 C 155.429688 172.574219 156.394531 171.152344 157.253906 169.660156 C 160.972656 162.394531 168.460938 159.375 175.453125 156.296875 C 176.996094 155.433594 178.464844 154.457031 179.859375 153.363281 C 181.253906 152.273438 182.554688 151.082031 183.765625 149.789062 C 184.972656 148.496094 186.078125 147.117188 187.074219 145.652344 C 188.070312 144.1875 188.945312 142.65625 189.707031 141.054688 C 190.464844 139.457031 191.097656 137.808594 191.601562 136.109375 C 192.105469 134.414062 192.476562 132.6875 192.714844 130.929688 C 192.953125 129.175781 193.054688 127.414062 193.019531 125.640625 C 192.984375 123.871094 192.8125 122.113281 192.507812 120.367188 C 191.980469 117.460938 191.972656 114.546875 192.480469 111.636719 C 192.992188 108.722656 193.992188 105.988281 195.480469 103.433594 C 195.980469 102.570312 196.441406 101.683594 196.863281 100.777344 C 197.285156 99.871094 197.667969 98.949219 198.011719 98.007812 C 198.355469 97.070312 198.65625 96.117188 198.914062 95.152344 C 199.171875 94.183594 199.386719 93.210938 199.5625 92.226562 C 199.734375 91.238281 199.867188 90.25 199.953125 89.253906 C 200.039062 88.257812 200.085938 87.257812 200.085938 86.257812 C 200.082031 85.257812 200.039062 84.261719 199.953125 83.265625 C 199.867188 82.269531 199.734375 81.277344 199.5625 80.292969 C 199.386719 79.308594 199.171875 78.332031 198.910156 77.367188 C 198.652344 76.402344 198.351562 75.449219 198.007812 74.507812 C 197.664062 73.570312 197.28125 72.648438 196.859375 71.742188 C 196.4375 70.835938 195.972656 69.949219 195.472656 69.082031 C 194.972656 68.21875 194.4375 67.375 193.863281 66.558594 C 193.289062 65.738281 192.679688 64.949219 192.035156 64.183594 C 191.390625 63.417969 190.714844 62.683594 190.007812 61.976562 C 189.300781 61.269531 188.5625 60.597656 187.796875 59.957031 C 185.546875 58.039062 183.683594 55.800781 182.207031 53.242188 C 180.730469 50.679688 179.730469 47.945312 179.199219 45.035156 C 179.027344 44.050781 178.816406 43.078125 178.558594 42.109375 C 178.300781 41.144531 178.003906 40.191406 177.660156 39.253906 C 177.320312 38.316406 176.941406 37.390625 176.519531 36.484375 C 176.101562 35.582031 175.640625 34.695312 175.144531 33.828125 C 174.644531 32.964844 174.109375 32.121094 173.539062 31.300781 C 172.964844 30.484375 172.359375 29.691406 171.71875 28.925781 C 171.078125 28.160156 170.40625 27.421875 169.699219 26.714844 C 168.996094 26.007812 168.257812 25.332031 167.496094 24.691406 C 166.730469 24.046875 165.941406 23.441406 165.121094 22.867188 C 164.304688 22.292969 163.464844 21.757812 162.601562 21.257812 C 161.738281 20.757812 160.851562 20.296875 159.949219 19.875 C 159.042969 19.453125 158.121094 19.070312 157.183594 18.726562 C 156.246094 18.386719 155.296875 18.085938 154.332031 17.828125 C 153.367188 17.570312 152.394531 17.351562 151.410156 17.179688 C 150.425781 17.003906 149.4375 16.875 148.445312 16.789062 C 147.449219 16.703125 146.453125 16.660156 145.457031 16.660156 C 142.496094 16.65625 139.625 16.144531 136.84375 15.128906 C 134.0625 14.117188 131.539062 12.65625 129.269531 10.753906 C 128.503906 10.113281 127.714844 9.503906 126.894531 8.933594 C 126.078125 8.359375 125.238281 7.824219 124.375 7.324219 C 123.507812 6.824219 122.625 6.363281 121.71875 5.941406 C 120.816406 5.515625 119.894531 5.136719 118.957031 4.792969 C 118.019531 4.453125 117.066406 4.152344 116.105469 3.894531 C 115.140625 3.632812 114.167969 3.417969 113.183594 3.246094 C 112.199219 3.070312 111.210938 2.941406 110.21875 2.855469 C 109.222656 2.765625 108.226562 2.722656 107.230469 2.722656 C 106.230469 2.722656 105.234375 2.765625 104.242188 2.855469 C 103.246094 2.941406 102.257812 3.070312 101.273438 3.246094 C 100.292969 3.417969 99.320312 3.632812 98.355469 3.894531 C 97.390625 4.152344 96.441406 4.453125 95.5 4.792969 C 94.5625 5.136719 93.644531 5.515625 92.738281 5.941406 C 91.832031 6.363281 90.949219 6.824219 90.085938 7.324219 C 89.222656 7.824219 88.378906 8.359375 87.5625 8.933594 C 86.746094 9.503906 85.953125 10.113281 85.191406 10.753906 C 82.921875 12.65625 80.394531 14.117188 77.613281 15.128906 C 74.832031 16.144531 71.964844 16.65625 69.003906 16.660156 C 68.003906 16.660156 67.007812 16.703125 66.015625 16.789062 C 65.019531 16.875 64.03125 17.003906 63.046875 17.179688 C 62.066406 17.351562 61.09375 17.570312 60.128906 17.828125 C 59.164062 18.085938 58.210938 18.386719 57.273438 18.726562 C 56.335938 19.070312 55.414062 19.453125 54.511719 19.875 C 53.605469 20.296875 52.722656 20.757812 51.859375 21.257812 C 50.992188 21.757812 50.152344 22.292969 49.335938 22.867188 C 48.519531 23.441406 47.726562 24.046875 46.964844 24.691406 C 46.199219 25.332031 45.464844 26.007812 44.757812 26.714844 C 44.054688 27.421875 43.378906 28.160156 42.738281 28.925781 C 42.097656 29.691406 41.492188 30.484375 40.921875 31.300781 C 40.347656 32.121094 39.8125 32.964844 39.316406 33.828125 C 38.816406 34.695312 38.359375 35.582031 37.9375 36.484375 C 37.515625 37.390625 37.136719 38.316406 36.796875 39.253906 C 36.457031 40.191406 36.15625 41.144531 35.902344 42.109375 C 35.644531 43.078125 35.429688 44.050781 35.257812 45.035156 C 34.730469 47.945312 33.726562 50.679688 32.25 53.242188 C 30.777344 55.800781 28.914062 58.039062 26.660156 59.957031 C 25.894531 60.597656 25.15625 61.269531 24.449219 61.976562 C 23.742188 62.683594 23.066406 63.417969 22.421875 64.183594 C 21.78125 64.949219 21.171875 65.738281 20.597656 66.558594 C 20.023438 67.375 19.484375 68.21875 18.984375 69.082031 C 18.484375 69.949219 18.023438 70.835938 17.597656 71.742188 C 17.175781 72.648438 16.792969 73.570312 16.449219 74.507812 C 16.109375 75.449219 15.808594 76.402344 15.546875 77.367188 C 15.289062 78.332031 15.070312 79.308594 14.898438 80.292969 C 14.722656 81.277344 14.59375 82.269531 14.507812 83.265625 C 14.417969 84.261719 14.375 85.257812 14.375 86.257812 C 14.375 87.257812 14.417969 88.257812 14.503906 89.253906 C 14.59375 90.25 14.722656 91.238281 14.894531 92.226562 C 15.070312 93.210938 15.285156 94.183594 15.546875 95.152344 C 15.804688 96.117188 16.105469 97.070312 16.445312 98.007812 C 16.789062 98.949219 17.171875 99.871094 17.59375 100.777344 C 18.019531 101.683594 18.480469 102.570312 18.980469 103.433594 C 20.464844 105.988281 21.464844 108.722656 21.976562 111.636719 C 22.488281 114.546875 22.480469 117.460938 21.953125 120.367188 C 21.78125 121.351562 21.652344 122.34375 21.566406 123.339844 C 21.480469 124.335938 21.4375 125.332031 21.4375 126.332031 C 21.441406 127.332031 21.484375 128.328125 21.574219 129.324219 C 21.660156 130.320312 21.792969 131.308594 21.96875 132.292969 C 22.140625 133.277344 22.359375 134.253906 22.617188 135.21875 C 22.878906 136.183594 23.179688 137.136719 23.519531 138.074219 C 23.863281 139.011719 24.246094 139.933594 24.667969 140.839844 C 25.089844 141.746094 25.550781 142.628906 26.050781 143.496094 C 26.550781 144.359375 27.089844 145.203125 27.664062 146.019531 C 28.234375 146.839844 28.84375 147.632812 29.484375 148.394531 C 30.128906 149.160156 30.804688 149.898438 31.507812 150.605469 C 32.214844 151.308594 32.953125 151.984375 33.71875 152.625 C 34.480469 153.269531 35.273438 153.875 36.09375 154.449219 C 36.910156 155.019531 37.753906 155.558594 38.617188 156.058594 C 39.480469 156.554688 40.367188 157.015625 41.273438 157.4375 C 42.175781 157.859375 43.097656 158.242188 44.039062 158.585938 C 46.8125 159.597656 49.335938 161.058594 51.597656 162.960938 C 53.859375 164.863281 55.730469 167.097656 57.207031 169.660156 C 57.953125 170.960938 58.78125 172.207031 59.691406 173.398438 C 60.601562 174.585938 61.585938 175.714844 62.644531 176.777344 C 63.703125 177.835938 64.824219 178.824219 66.011719 179.738281 C 67.199219 180.652344 68.441406 181.484375 69.738281 182.234375 C 71.035156 182.984375 72.375 183.644531 73.761719 184.21875 C 75.144531 184.792969 76.5625 185.273438 78.007812 185.660156 C 79.453125 186.050781 80.921875 186.339844 82.40625 186.535156 C 83.890625 186.730469 85.382812 186.824219 86.882812 186.824219 C 88.660156 186.820312 90.429688 186.683594 92.1875 186.410156 L 86.652344 195.976562 L 60.910156 240.644531 L 55.878906 204.582031 C 55.832031 204.238281 55.75 203.902344 55.625 203.578125 C 55.503906 203.253906 55.34375 202.945312 55.152344 202.660156 C 54.960938 202.371094 54.734375 202.105469 54.484375 201.871094 C 54.230469 201.632812 53.953125 201.425781 53.652344 201.25 C 53.355469 201.078125 53.039062 200.9375 52.707031 200.835938 C 52.375 200.734375 52.035156 200.671875 51.691406 200.644531 C 51.34375 200.621094 51 200.636719 50.65625 200.691406 C 50.316406 200.742188 49.984375 200.835938 49.660156 200.964844 L 15.917969 214.695312 L 42.800781 168.058594 C 42.1875 167.710938 41.546875 167.421875 40.882812 167.1875 C 38.648438 166.382812 36.5 165.390625 34.433594 164.214844 L 1.328125 221.652344 C 1.089844 222.066406 0.914062 222.503906 0.8125 222.972656 C 0.710938 223.441406 0.679688 223.910156 0.726562 224.386719 C 0.769531 224.863281 0.886719 225.324219 1.078125 225.761719 C 1.265625 226.203125 1.519531 226.601562 1.832031 226.960938 C 2.148438 227.316406 2.511719 227.613281 2.917969 227.859375 C 3.328125 228.101562 3.761719 228.277344 4.222656 228.390625 C 4.683594 228.5 5.152344 228.539062 5.625 228.503906 C 6.101562 228.472656 6.558594 228.371094 7 228.195312 L 47.648438 211.628906 L 53.683594 255.109375 C 53.757812 255.574219 53.898438 256.019531 54.105469 256.441406 C 54.316406 256.863281 54.585938 257.246094 54.910156 257.585938 C 55.238281 257.925781 55.609375 258.207031 56.023438 258.433594 C 56.4375 258.660156 56.875 258.816406 57.335938 258.90625 C 57.800781 258.996094 58.265625 259.015625 58.734375 258.960938 C 59.199219 258.90625 59.648438 258.785156 60.082031 258.59375 C 60.511719 258.398438 60.902344 258.148438 61.253906 257.832031 C 61.605469 257.519531 61.902344 257.160156 62.144531 256.753906 L 98.039062 194.511719 L 104.441406 183.4375 C 106.300781 183.207031 108.160156 183.207031 110.019531 183.4375 L 116.421875 194.558594 L 152.3125 256.757812 C 152.554688 257.167969 152.847656 257.535156 153.203125 257.859375 C 153.554688 258.179688 153.949219 258.4375 154.386719 258.632812 C 154.820312 258.832031 155.273438 258.957031 155.75 259.011719 C 156.222656 259.066406 156.691406 259.046875 157.160156 258.953125 C 157.628906 258.867188 158.066406 258.707031 158.484375 258.480469 C 158.898438 258.253906 159.269531 257.96875 159.59375 257.621094 C 159.917969 257.277344 160.183594 256.886719 160.382812 256.457031 C 160.585938 256.03125 160.714844 255.578125 160.773438 255.109375 L 166.808594 211.628906 L 207.457031 228.195312 C 207.898438 228.367188 208.355469 228.464844 208.828125 228.496094 C 209.300781 228.523438 209.765625 228.480469 210.222656 228.367188 C 210.683594 228.25 211.113281 228.070312 211.515625 227.820312 C 211.917969 227.574219 212.277344 227.273438 212.585938 226.914062 C 212.894531 226.554688 213.144531 226.160156 213.332031 225.726562 C 213.519531 225.292969 213.636719 224.839844 213.6875 224.367188 C 213.734375 223.898438 213.710938 223.429688 213.617188 222.96875 C 213.523438 222.503906 213.359375 222.066406 213.128906 221.652344 Z M 101.652344 174.558594 C 99.542969 174.898438 97.484375 175.433594 95.476562 176.160156 C 94.101562 176.664062 92.6875 177.042969 91.246094 177.296875 C 89.800781 177.550781 88.347656 177.679688 86.878906 177.679688 C 85.414062 177.679688 83.957031 177.554688 82.511719 177.296875 C 81.070312 177.042969 79.65625 176.664062 78.28125 176.160156 C 76.902344 175.660156 75.578125 175.039062 74.308594 174.304688 C 73.039062 173.570312 71.84375 172.730469 70.722656 171.785156 C 69.597656 170.839844 68.566406 169.804688 67.625 168.679688 C 66.683594 167.554688 65.847656 166.355469 65.117188 165.082031 C 64.09375 163.3125 62.921875 161.640625 61.601562 160.078125 C 60.28125 158.515625 58.832031 157.082031 57.253906 155.777344 C 55.675781 154.472656 54 153.316406 52.214844 152.3125 C 50.433594 151.308594 48.574219 150.46875 46.644531 149.796875 C 45.296875 149.273438 44.007812 148.636719 42.769531 147.890625 C 41.535156 147.144531 40.371094 146.296875 39.28125 145.351562 C 38.1875 144.40625 37.1875 143.371094 36.273438 142.253906 C 35.359375 141.132812 34.546875 139.945312 33.839844 138.6875 C 33.128906 137.425781 32.53125 136.117188 32.046875 134.757812 C 31.5625 133.394531 31.199219 132.003906 30.953125 130.578125 C 30.707031 129.152344 30.585938 127.71875 30.585938 126.273438 C 30.589844 124.828125 30.710938 123.394531 30.960938 121.96875 C 31.308594 120 31.484375 118.015625 31.488281 116.011719 C 31.488281 114.011719 31.316406 112.023438 30.96875 110.054688 C 30.621094 108.082031 30.105469 106.15625 29.421875 104.277344 C 28.734375 102.394531 27.890625 100.589844 26.890625 98.859375 C 26.152344 97.585938 25.535156 96.257812 25.03125 94.878906 C 24.527344 93.496094 24.148438 92.082031 23.890625 90.636719 C 23.636719 89.1875 23.507812 87.726562 23.507812 86.257812 C 23.507812 84.789062 23.632812 83.328125 23.890625 81.882812 C 24.144531 80.433594 24.523438 79.019531 25.027344 77.636719 C 25.53125 76.257812 26.148438 74.929688 26.882812 73.65625 C 27.621094 72.382812 28.460938 71.183594 29.40625 70.058594 C 30.351562 68.933594 31.386719 67.902344 32.515625 66.957031 C 34.046875 65.671875 35.453125 64.261719 36.742188 62.726562 C 38.027344 61.195312 39.171875 59.5625 40.171875 57.828125 C 41.175781 56.097656 42.019531 54.292969 42.707031 52.410156 C 43.394531 50.53125 43.914062 48.609375 44.265625 46.636719 C 44.515625 45.191406 44.890625 43.777344 45.386719 42.394531 C 45.886719 41.011719 46.5 39.683594 47.230469 38.410156 C 47.960938 37.136719 48.796875 35.9375 49.738281 34.8125 C 50.679688 33.683594 51.710938 32.648438 52.835938 31.703125 C 53.957031 30.757812 55.15625 29.917969 56.425781 29.183594 C 57.695312 28.445312 59.019531 27.828125 60.398438 27.328125 C 61.777344 26.824219 63.1875 26.445312 64.632812 26.191406 C 66.078125 25.9375 67.535156 25.8125 69.003906 25.8125 C 71.003906 25.8125 72.988281 25.640625 74.957031 25.296875 C 76.925781 24.949219 78.847656 24.4375 80.726562 23.753906 C 82.609375 23.070312 84.414062 22.230469 86.144531 21.230469 C 87.878906 20.230469 89.511719 19.089844 91.042969 17.804688 C 92.167969 16.859375 93.367188 16.015625 94.636719 15.28125 C 95.910156 14.542969 97.234375 13.925781 98.617188 13.421875 C 99.996094 12.917969 101.410156 12.539062 102.855469 12.28125 C 104.300781 12.027344 105.761719 11.898438 107.230469 11.898438 C 108.699219 11.898438 110.15625 12.027344 111.601562 12.28125 C 113.050781 12.539062 114.464844 12.917969 115.84375 13.421875 C 117.222656 13.925781 118.550781 14.542969 119.820312 15.28125 C 121.09375 16.015625 122.292969 16.859375 123.417969 17.804688 C 124.949219 19.089844 126.582031 20.230469 128.3125 21.230469 C 130.046875 22.230469 131.851562 23.070312 133.730469 23.753906 C 135.609375 24.4375 137.535156 24.949219 139.503906 25.296875 C 141.472656 25.640625 143.457031 25.8125 145.457031 25.8125 C 146.921875 25.8125 148.378906 25.9375 149.824219 26.191406 C 151.269531 26.445312 152.679688 26.824219 154.058594 27.328125 C 155.4375 27.828125 156.765625 28.445312 158.035156 29.183594 C 159.304688 29.917969 160.5 30.757812 161.625 31.703125 C 162.746094 32.648438 163.777344 33.683594 164.71875 34.8125 C 165.660156 35.9375 166.496094 37.136719 167.226562 38.410156 C 167.960938 39.683594 168.574219 41.011719 169.070312 42.394531 C 169.570312 43.777344 169.941406 45.191406 170.191406 46.636719 C 170.546875 48.609375 171.066406 50.53125 171.753906 52.410156 C 172.441406 54.292969 173.285156 56.097656 174.285156 57.828125 C 175.289062 59.5625 176.433594 61.195312 177.71875 62.726562 C 179.003906 64.261719 180.414062 65.671875 181.945312 66.957031 C 183.070312 67.902344 184.105469 68.933594 185.050781 70.058594 C 185.996094 71.183594 186.839844 72.382812 187.574219 73.65625 C 188.308594 74.929688 188.929688 76.257812 189.433594 77.636719 C 189.933594 79.019531 190.3125 80.433594 190.570312 81.882812 C 190.824219 83.328125 190.953125 84.789062 190.953125 86.257812 C 190.953125 87.726562 190.824219 89.1875 190.566406 90.636719 C 190.3125 92.082031 189.933594 93.496094 189.429688 94.878906 C 188.925781 96.257812 188.304688 97.585938 187.566406 98.859375 C 186.566406 100.589844 185.722656 102.394531 185.039062 104.277344 C 184.351562 106.15625 183.835938 108.082031 183.488281 110.054688 C 183.144531 112.023438 182.96875 114.011719 182.972656 116.011719 C 182.972656 118.015625 183.148438 120 183.5 121.96875 C 183.746094 123.394531 183.871094 124.828125 183.871094 126.273438 C 183.871094 127.71875 183.75 129.152344 183.503906 130.578125 C 183.257812 132.003906 182.894531 133.394531 182.410156 134.757812 C 181.925781 136.117188 181.328125 137.425781 180.621094 138.6875 C 179.910156 139.945312 179.097656 141.132812 178.183594 142.253906 C 177.269531 143.371094 176.269531 144.40625 175.179688 145.351562 C 174.085938 146.296875 172.925781 147.144531 171.6875 147.890625 C 170.453125 148.636719 169.160156 149.273438 167.816406 149.796875 C 165.882812 150.46875 164.027344 151.308594 162.242188 152.3125 C 160.460938 153.316406 158.78125 154.472656 157.203125 155.777344 C 155.628906 157.082031 154.179688 158.515625 152.859375 160.078125 C 151.539062 161.640625 150.367188 163.3125 149.34375 165.082031 C 148.609375 166.355469 147.773438 167.554688 146.832031 168.679688 C 145.890625 169.804688 144.859375 170.839844 143.738281 171.785156 C 142.613281 172.730469 141.417969 173.570312 140.148438 174.304688 C 138.878906 175.039062 137.554688 175.660156 136.179688 176.160156 C 134.800781 176.664062 133.390625 177.042969 131.945312 177.296875 C 130.5 177.554688 129.046875 177.679688 127.578125 177.679688 C 126.113281 177.679688 124.65625 177.550781 123.214844 177.296875 C 121.769531 177.042969 120.359375 176.664062 118.980469 176.160156 C 116.207031 175.160156 113.351562 174.527344 110.417969 174.257812 C 107.484375 173.984375 104.558594 174.085938 101.652344 174.558594 Z M 101.652344 174.558594 " fill-opacity="1" fill-rule="nonzero"/></g></svg>