<svg version="1.0" preserveAspectRatio="xMidYMid meet" viewBox="38.02980877390326 156.67200000000003 633.8301462317211 119.80799999999999" zoomAndPan="magnify" xmlns:xlink="http://www.w3.org/1999/xlink" xmlns="http://www.w3.org/2000/svg" style="max-height: 500px" width="633.8301462317211" height="119.80799999999999"><defs><g/><clipPath id="dddb8bba6e"><rect height="164" y="0" width="112" x="0"/></clipPath></defs><g fill-opacity="1" fill="#1f1f1f"><g transform="translate(145.460994, 272.195348)"><g><path d="M 43.40625 1.0625 C 38.863281 1.0625 34.359375 0.300781 29.890625 -1.21875 C 25.421875 -2.75 21.34375 -5.09375 17.65625 -8.25 C 13.96875 -11.40625 11.023438 -15.390625 8.828125 -20.203125 C 6.628906 -25.023438 5.53125 -30.738281 5.53125 -37.34375 C 5.53125 -44.644531 7.125 -51.148438 10.3125 -56.859375 C 13.507812 -62.566406 17.941406 -67.066406 23.609375 -70.359375 C 29.285156 -73.660156 35.882812 -75.3125 43.40625 -75.3125 C 47.875 -75.3125 52.335938 -74.53125 56.796875 -72.96875 C 61.265625 -71.414062 65.328125 -69.0625 68.984375 -65.90625 C 72.640625 -62.75 75.566406 -58.757812 77.765625 -53.9375 C 79.960938 -49.113281 81.0625 -43.4375 81.0625 -36.90625 C 81.0625 -30.3125 79.960938 -24.640625 77.765625 -19.890625 C 75.566406 -15.140625 72.625 -11.203125 68.9375 -8.078125 C 65.25 -4.960938 61.1875 -2.660156 56.75 -1.171875 C 52.320312 0.316406 47.875 1.0625 43.40625 1.0625 Z M 14.046875 -43.5 C 14.253906 -38.1875 15.226562 -33.03125 16.96875 -28.03125 C 18.707031 -23.03125 21.082031 -18.539062 24.09375 -14.5625 C 27.101562 -10.59375 30.628906 -7.4375 34.671875 -5.09375 C 38.710938 -2.757812 43.113281 -1.59375 47.875 -1.59375 C 53.539062 -1.59375 58.253906 -2.832031 62.015625 -5.3125 C 65.773438 -7.800781 68.554688 -11.1875 70.359375 -15.46875 C 72.171875 -19.757812 72.972656 -24.566406 72.765625 -29.890625 C 72.546875 -35.421875 71.566406 -40.753906 69.828125 -45.890625 C 68.097656 -51.035156 65.742188 -55.628906 62.765625 -59.671875 C 59.785156 -63.710938 56.273438 -66.921875 52.234375 -69.296875 C 48.191406 -71.671875 43.796875 -72.859375 39.046875 -72.859375 C 33.648438 -72.859375 29.054688 -71.617188 25.265625 -69.140625 C 21.472656 -66.660156 18.597656 -63.222656 16.640625 -58.828125 C 14.691406 -54.429688 13.828125 -49.320312 14.046875 -43.5 Z M 14.046875 -43.5"/></g></g></g><g fill-opacity="1" fill="#1f1f1f"><g transform="translate(231.936533, 272.195348)"><g><path d="M 59.5625 0.75 C 56.875 0.75 54.75 0.09375 53.1875 -1.21875 C 51.625 -2.53125 50.257812 -4.445312 49.09375 -6.96875 C 47.925781 -9.488281 46.5625 -12.59375 45 -16.28125 C 43.4375 -19.96875 42.125 -23.191406 41.0625 -25.953125 C 40 -28.722656 38.84375 -31.03125 37.59375 -32.875 C 36.351562 -34.71875 34.773438 -36.097656 32.859375 -37.015625 C 30.953125 -37.941406 28.398438 -38.40625 25.203125 -38.40625 L 18.40625 -38.40625 L 18.40625 -13.515625 C 18.40625 -9.179688 18.707031 -6.195312 19.3125 -4.5625 C 19.914062 -2.9375 21.03125 -1.878906 22.65625 -1.390625 L 22.65625 0 L 5.421875 0 L 5.421875 -1.390625 C 7.054688 -1.878906 8.175781 -2.9375 8.78125 -4.5625 C 9.382812 -6.195312 9.6875 -9.179688 9.6875 -13.515625 L 9.6875 -60.953125 C 9.6875 -65.347656 9.382812 -68.34375 8.78125 -69.9375 C 8.175781 -71.53125 7.054688 -72.578125 5.421875 -73.078125 L 5.421875 -74.46875 L 26.375 -74.46875 C 33.613281 -74.46875 39.253906 -73.738281 43.296875 -72.28125 C 47.335938 -70.820312 50.191406 -68.851562 51.859375 -66.375 C 53.523438 -63.894531 54.359375 -61.0625 54.359375 -57.875 C 54.359375 -52.90625 52.582031 -48.664062 49.03125 -45.15625 C 45.488281 -41.644531 40.242188 -39.5 33.296875 -38.71875 C 36.554688 -38.289062 39.210938 -37.5625 41.265625 -36.53125 C 43.328125 -35.507812 45.03125 -34.128906 46.375 -32.390625 C 47.726562 -30.648438 48.9375 -28.539062 50 -26.0625 C 51.0625 -23.582031 52.226562 -20.710938 53.5 -17.453125 C 55.207031 -13.191406 56.644531 -9.890625 57.8125 -7.546875 C 58.976562 -5.210938 60.054688 -3.566406 61.046875 -2.609375 C 62.046875 -1.648438 63.148438 -1.171875 64.359375 -1.171875 C 64.710938 -1.171875 65.015625 -1.171875 65.265625 -1.171875 C 65.515625 -1.171875 65.78125 -1.207031 66.0625 -1.28125 L 66.0625 0 C 65.28125 0.28125 64.269531 0.472656 63.03125 0.578125 C 61.789062 0.691406 60.632812 0.75 59.5625 0.75 Z M 18.40625 -40 L 27.34375 -40 C 33.4375 -40 37.953125 -41.429688 40.890625 -44.296875 C 43.835938 -47.171875 45.3125 -50.878906 45.3125 -55.421875 C 45.3125 -58.609375 44.582031 -61.515625 43.125 -64.140625 C 41.675781 -66.765625 39.335938 -68.875 36.109375 -70.46875 C 32.890625 -72.0625 28.65625 -72.859375 23.40625 -72.859375 C 22.625 -72.859375 21.804688 -72.84375 20.953125 -72.8125 C 20.097656 -72.78125 19.25 -72.726562 18.40625 -72.65625 Z M 18.40625 -40"/></g></g></g><g fill-opacity="1" fill="#1f1f1f"><g transform="translate(293.841319, 272.195348)"><g><path d="M 21.171875 0 L 21.171875 -1.390625 C 22.796875 -1.878906 23.910156 -2.9375 24.515625 -4.5625 C 25.117188 -6.195312 25.421875 -9.179688 25.421875 -13.515625 L 25.421875 -72.765625 L 20.21875 -72.765625 C 15.457031 -72.765625 11.835938 -72.019531 9.359375 -70.53125 C 6.878906 -69.039062 4.71875 -66.378906 2.875 -62.546875 L 1.703125 -62.765625 L 2.34375 -74.46875 L 57.125 -74.46875 L 57.765625 -62.765625 L 56.59375 -62.546875 C 54.820312 -66.378906 52.691406 -69.039062 50.203125 -70.53125 C 47.722656 -72.019531 44.070312 -72.765625 39.25 -72.765625 L 34.25 -72.765625 L 34.25 -13.515625 C 34.25 -9.179688 34.550781 -6.195312 35.15625 -4.5625 C 35.757812 -2.9375 36.875 -1.878906 38.5 -1.390625 L 38.5 0 Z M 21.171875 0"/></g></g></g><g fill-opacity="1" fill="#1f1f1f"><g transform="translate(353.406267, 272.195348)"><g><path d="M 5.421875 0 L 5.421875 -1.390625 C 7.054688 -1.878906 8.175781 -2.9375 8.78125 -4.5625 C 9.382812 -6.195312 9.6875 -9.179688 9.6875 -13.515625 L 9.6875 -60.953125 C 9.6875 -65.347656 9.382812 -68.34375 8.78125 -69.9375 C 8.175781 -71.53125 7.054688 -72.578125 5.421875 -73.078125 L 5.421875 -74.46875 L 55.53125 -74.46875 L 56.484375 -63.296875 L 55.3125 -62.96875 C 53.539062 -66.519531 51.34375 -69.039062 48.71875 -70.53125 C 46.09375 -72.019531 42.265625 -72.765625 37.234375 -72.765625 L 18.40625 -72.765625 L 18.40625 -41.59375 L 31.0625 -41.59375 C 35.101562 -41.59375 38.238281 -41.859375 40.46875 -42.390625 C 42.707031 -42.921875 44.335938 -43.71875 45.359375 -44.78125 C 46.390625 -45.84375 47.117188 -47.15625 47.546875 -48.71875 L 48.828125 -48.71875 L 48.828125 -32.546875 L 47.546875 -32.546875 C 47.117188 -34.179688 46.390625 -35.53125 45.359375 -36.59375 C 44.335938 -37.65625 42.707031 -38.46875 40.46875 -39.03125 C 38.238281 -39.601562 35.101562 -39.890625 31.0625 -39.890625 L 18.40625 -39.890625 L 18.40625 -13.515625 C 18.40625 -9.179688 18.707031 -6.195312 19.3125 -4.5625 C 19.914062 -2.9375 21.03125 -1.878906 22.65625 -1.390625 L 22.65625 0 Z M 5.421875 0"/></g></g></g><g fill-opacity="1" fill="#1f1f1f"><g transform="translate(412.864849, 272.195348)"><g><path d="M 43.40625 1.0625 C 38.863281 1.0625 34.359375 0.300781 29.890625 -1.21875 C 25.421875 -2.75 21.34375 -5.09375 17.65625 -8.25 C 13.96875 -11.40625 11.023438 -15.390625 8.828125 -20.203125 C 6.628906 -25.023438 5.53125 -30.738281 5.53125 -37.34375 C 5.53125 -44.644531 7.125 -51.148438 10.3125 -56.859375 C 13.507812 -62.566406 17.941406 -67.066406 23.609375 -70.359375 C 29.285156 -73.660156 35.882812 -75.3125 43.40625 -75.3125 C 47.875 -75.3125 52.335938 -74.53125 56.796875 -72.96875 C 61.265625 -71.414062 65.328125 -69.0625 68.984375 -65.90625 C 72.640625 -62.75 75.566406 -58.757812 77.765625 -53.9375 C 79.960938 -49.113281 81.0625 -43.4375 81.0625 -36.90625 C 81.0625 -30.3125 79.960938 -24.640625 77.765625 -19.890625 C 75.566406 -15.140625 72.625 -11.203125 68.9375 -8.078125 C 65.25 -4.960938 61.1875 -2.660156 56.75 -1.171875 C 52.320312 0.316406 47.875 1.0625 43.40625 1.0625 Z M 14.046875 -43.5 C 14.253906 -38.1875 15.226562 -33.03125 16.96875 -28.03125 C 18.707031 -23.03125 21.082031 -18.539062 24.09375 -14.5625 C 27.101562 -10.59375 30.628906 -7.4375 34.671875 -5.09375 C 38.710938 -2.757812 43.113281 -1.59375 47.875 -1.59375 C 53.539062 -1.59375 58.253906 -2.832031 62.015625 -5.3125 C 65.773438 -7.800781 68.554688 -11.1875 70.359375 -15.46875 C 72.171875 -19.757812 72.972656 -24.566406 72.765625 -29.890625 C 72.546875 -35.421875 71.566406 -40.753906 69.828125 -45.890625 C 68.097656 -51.035156 65.742188 -55.628906 62.765625 -59.671875 C 59.785156 -63.710938 56.273438 -66.921875 52.234375 -69.296875 C 48.191406 -71.671875 43.796875 -72.859375 39.046875 -72.859375 C 33.648438 -72.859375 29.054688 -71.617188 25.265625 -69.140625 C 21.472656 -66.660156 18.597656 -63.222656 16.640625 -58.828125 C 14.691406 -54.429688 13.828125 -49.320312 14.046875 -43.5 Z M 14.046875 -43.5"/></g></g></g><g fill-opacity="1" fill="#1f1f1f"><g transform="translate(499.340387, 272.195348)"><g><path d="M 5.421875 0 L 5.421875 -1.390625 C 7.054688 -1.878906 8.175781 -2.9375 8.78125 -4.5625 C 9.382812 -6.195312 9.6875 -9.179688 9.6875 -13.515625 L 9.6875 -60.953125 C 9.6875 -65.347656 9.382812 -68.34375 8.78125 -69.9375 C 8.175781 -71.53125 7.054688 -72.578125 5.421875 -73.078125 L 5.421875 -74.46875 L 22.65625 -74.46875 L 22.65625 -73.078125 C 21.03125 -72.578125 19.914062 -71.53125 19.3125 -69.9375 C 18.707031 -68.34375 18.40625 -65.347656 18.40625 -60.953125 L 18.40625 -6.484375 C 18.40625 -3.296875 20 -1.703125 23.1875 -1.703125 L 35.84375 -1.703125 C 40.945312 -1.703125 44.863281 -2.460938 47.59375 -3.984375 C 50.332031 -5.515625 52.625 -8.265625 54.46875 -12.234375 L 55.640625 -12.015625 L 54.890625 0 Z M 5.421875 0"/></g></g></g><g fill-opacity="1" fill="#1f1f1f"><g transform="translate(557.097102, 272.195348)"><g><path d="M 5.421875 0 L 5.421875 -1.390625 C 7.054688 -1.878906 8.175781 -2.9375 8.78125 -4.5625 C 9.382812 -6.195312 9.6875 -9.179688 9.6875 -13.515625 L 9.6875 -60.953125 C 9.6875 -65.347656 9.382812 -68.34375 8.78125 -69.9375 C 8.175781 -71.53125 7.054688 -72.578125 5.421875 -73.078125 L 5.421875 -74.46875 L 22.65625 -74.46875 L 22.65625 -73.078125 C 21.03125 -72.578125 19.914062 -71.53125 19.3125 -69.9375 C 18.707031 -68.34375 18.40625 -65.347656 18.40625 -60.953125 L 18.40625 -13.515625 C 18.40625 -9.179688 18.707031 -6.195312 19.3125 -4.5625 C 19.914062 -2.9375 21.03125 -1.878906 22.65625 -1.390625 L 22.65625 0 Z M 5.421875 0"/></g></g></g><g fill-opacity="1" fill="#1f1f1f"><g transform="translate(585.177725, 272.195348)"><g><path d="M 43.40625 1.0625 C 38.863281 1.0625 34.359375 0.300781 29.890625 -1.21875 C 25.421875 -2.75 21.34375 -5.09375 17.65625 -8.25 C 13.96875 -11.40625 11.023438 -15.390625 8.828125 -20.203125 C 6.628906 -25.023438 5.53125 -30.738281 5.53125 -37.34375 C 5.53125 -44.644531 7.125 -51.148438 10.3125 -56.859375 C 13.507812 -62.566406 17.941406 -67.066406 23.609375 -70.359375 C 29.285156 -73.660156 35.882812 -75.3125 43.40625 -75.3125 C 47.875 -75.3125 52.335938 -74.53125 56.796875 -72.96875 C 61.265625 -71.414062 65.328125 -69.0625 68.984375 -65.90625 C 72.640625 -62.75 75.566406 -58.757812 77.765625 -53.9375 C 79.960938 -49.113281 81.0625 -43.4375 81.0625 -36.90625 C 81.0625 -30.3125 79.960938 -24.640625 77.765625 -19.890625 C 75.566406 -15.140625 72.625 -11.203125 68.9375 -8.078125 C 65.25 -4.960938 61.1875 -2.660156 56.75 -1.171875 C 52.320312 0.316406 47.875 1.0625 43.40625 1.0625 Z M 14.046875 -43.5 C 14.253906 -38.1875 15.226562 -33.03125 16.96875 -28.03125 C 18.707031 -23.03125 21.082031 -18.539062 24.09375 -14.5625 C 27.101562 -10.59375 30.628906 -7.4375 34.671875 -5.09375 C 38.710938 -2.757812 43.113281 -1.59375 47.875 -1.59375 C 53.539062 -1.59375 58.253906 -2.832031 62.015625 -5.3125 C 65.773438 -7.800781 68.554688 -11.1875 70.359375 -15.46875 C 72.171875 -19.757812 72.972656 -24.566406 72.765625 -29.890625 C 72.546875 -35.421875 71.566406 -40.753906 69.828125 -45.890625 C 68.097656 -51.035156 65.742188 -55.628906 62.765625 -59.671875 C 59.785156 -63.710938 56.273438 -66.921875 52.234375 -69.296875 C 48.191406 -71.671875 43.796875 -72.859375 39.046875 -72.859375 C 33.648438 -72.859375 29.054688 -71.617188 25.265625 -69.140625 C 21.472656 -66.660156 18.597656 -63.222656 16.640625 -58.828125 C 14.691406 -54.429688 13.828125 -49.320312 14.046875 -43.5 Z M 14.046875 -43.5"/></g></g></g><g transform="matrix(1, 0, 0, 1, 42, 156)"><g clip-path="url(#dddb8bba6e)"><g fill-opacity="1" fill="#1f1f1f"><g transform="translate(40.936773, 113.785482)"><g><path d="M 21.125 -10.078125 C 21.125 -8.015625 21.503906 -5.976562 22.265625 -3.96875 C 23.023438 -1.96875 24.539062 -0.644531 26.8125 0 L 5.53125 0 C 7.914062 -0.644531 9.457031 -2 10.15625 -4.0625 C 10.863281 -6.125 11.21875 -8.238281 11.21875 -10.40625 L 11.21875 -69.734375 C 11.21875 -71.796875 10.835938 -73.828125 10.078125 -75.828125 C 9.316406 -77.828125 7.800781 -79.097656 5.53125 -79.640625 L 26.8125 -79.640625 C 24.539062 -78.992188 23.023438 -77.695312 22.265625 -75.75 C 21.503906 -73.800781 21.125 -71.796875 21.125 -69.734375 L 21.125 -32.515625 C 32.832031 -32.515625 41.234375 -35.492188 46.328125 -41.453125 C 51.421875 -47.410156 53.96875 -56.023438 53.96875 -67.296875 C 53.96875 -72.929688 52.988281 -78.1875 51.03125 -83.0625 C 49.082031 -87.9375 46.347656 -92.160156 42.828125 -95.734375 C 39.304688 -99.316406 35.160156 -102.109375 30.390625 -104.109375 C 25.628906 -106.117188 20.375 -107.125 14.625 -107.125 C 7.363281 -107.125 0.78125 -105.796875 -5.125 -103.140625 C -11.03125 -100.484375 -16.039062 -96.851562 -20.15625 -92.25 C -24.269531 -87.644531 -27.460938 -82.253906 -29.734375 -76.078125 C -32.015625 -69.898438 -33.15625 -63.285156 -33.15625 -56.234375 C -33.15625 -50.597656 -32.34375 -45.125 -30.71875 -39.8125 C -29.09375 -34.507812 -26.679688 -29.828125 -23.484375 -25.765625 C -20.285156 -21.703125 -16.359375 -18.453125 -11.703125 -16.015625 C -7.046875 -13.578125 -1.628906 -12.359375 4.546875 -12.359375 L 4.546875 -10.890625 C -2.171875 -10.890625 -8.238281 -12.21875 -13.65625 -14.875 C -19.070312 -17.53125 -23.675781 -21.078125 -27.46875 -25.515625 C -31.257812 -29.960938 -34.1875 -35.082031 -36.25 -40.875 C -38.3125 -46.675781 -39.34375 -52.773438 -39.34375 -59.171875 C -39.34375 -66.753906 -37.878906 -73.578125 -34.953125 -79.640625 C -32.023438 -85.710938 -28.09375 -90.890625 -23.15625 -95.171875 C -18.226562 -99.453125 -12.515625 -102.753906 -6.015625 -105.078125 C 0.484375 -107.410156 7.363281 -108.578125 14.625 -108.578125 C 20.695312 -108.578125 26.65625 -107.707031 32.5 -105.96875 C 38.351562 -104.238281 43.582031 -101.640625 48.1875 -98.171875 C 52.800781 -94.710938 56.515625 -90.4375 59.328125 -85.34375 C 62.148438 -80.25 63.5625 -74.34375 63.5625 -67.625 C 63.5625 -60.90625 62.503906 -55.238281 60.390625 -50.625 C 58.273438 -46.019531 55.320312 -42.28125 51.53125 -39.40625 C 47.738281 -36.539062 43.238281 -34.457031 38.03125 -33.15625 C 32.832031 -31.851562 27.195312 -31.203125 21.125 -31.203125 Z M 21.125 -10.078125"/></g></g></g></g></g></svg>