<svg version="1.0" preserveAspectRatio="xMidYMid meet" viewBox="21 91.499997804 312 108.74999739" zoomAndPan="magnify" xmlns:xlink="http://www.w3.org/1999/xlink" xmlns="http://www.w3.org/2000/svg" style="max-height: 500px" width="312" height="108.74999739"><defs><g/><clipPath id="21e3c293f3"><rect height="140" y="0" width="310" x="0"/></clipPath></defs><g transform="matrix(1, 0, 0, 1, 22, 80)"><g clip-path="url(#21e3c293f3)"><g fill-opacity="1" fill="#1f1f1f"><g transform="translate(37.509538, 68.602434)"><g><path d="M 1.828125 0 L 1.828125 -0.640625 C 2.578125 -0.867188 3.09375 -1.359375 3.375 -2.109375 C 3.65625 -2.867188 3.796875 -4.25 3.796875 -6.25 L 3.796875 -32.34375 C 3.796875 -33.488281 3.71875 -34.347656 3.5625 -34.921875 C 3.414062 -35.503906 3.203125 -35.925781 2.921875 -36.1875 C 2.648438 -36.445312 2.285156 -36.675781 1.828125 -36.875 L 1.828125 -37.421875 L 7.1875 -39.78125 L 7.625 -39.4375 L 7.625 -10.6875 L 16.203125 -18.90625 C 17.804688 -20.476562 18.753906 -21.707031 19.046875 -22.59375 C 19.347656 -23.476562 19.21875 -24.035156 18.65625 -24.265625 L 18.65625 -24.625 L 24.46875 -24.625 L 24.46875 -23.984375 C 23.75 -23.742188 22.925781 -23.410156 22 -22.984375 C 21.082031 -22.566406 19.90625 -21.664062 18.46875 -20.28125 L 14.921875 -16.84375 L 20.671875 -6.453125 C 21.628906 -4.742188 22.535156 -3.351562 23.390625 -2.28125 C 24.242188 -1.21875 25.226562 -0.65625 26.34375 -0.59375 L 26.34375 0 L 23.140625 0 C 21.921875 0 20.84375 -0.429688 19.90625 -1.296875 C 18.976562 -2.171875 17.90625 -3.707031 16.6875 -5.90625 L 12.203125 -14.234375 L 7.625 -9.796875 L 7.625 -6.25 C 7.625 -4.25 7.765625 -2.867188 8.046875 -2.109375 C 8.328125 -1.359375 8.84375 -0.867188 9.59375 -0.640625 L 9.59375 0 Z M 1.828125 0"/></g></g></g><g fill-opacity="1" fill="#1f1f1f"><g transform="translate(63.601979, 68.602434)"><g><path d="M 1.578125 0 L 1.578125 -0.640625 C 2.328125 -0.867188 2.84375 -1.359375 3.125 -2.109375 C 3.40625 -2.867188 3.546875 -4.25 3.546875 -6.25 L 3.546875 -17.578125 C 3.546875 -18.722656 3.476562 -19.582031 3.34375 -20.15625 C 3.21875 -20.726562 3.003906 -21.144531 2.703125 -21.40625 C 2.410156 -21.675781 2.035156 -21.910156 1.578125 -22.109375 L 1.578125 -22.640625 L 6.984375 -25.015625 L 7.390625 -24.671875 L 7.390625 -6.25 C 7.390625 -4.25 7.535156 -2.867188 7.828125 -2.109375 C 8.117188 -1.359375 8.628906 -0.867188 9.359375 -0.640625 L 9.359375 0 Z M 2.46875 -30.71875 C 2.46875 -31.507812 2.726562 -32.164062 3.25 -32.6875 C 3.769531 -33.21875 4.410156 -33.484375 5.171875 -33.484375 C 5.953125 -33.484375 6.597656 -33.21875 7.109375 -32.6875 C 7.617188 -32.164062 7.875 -31.507812 7.875 -30.71875 C 7.875 -30 7.609375 -29.367188 7.078125 -28.828125 C 6.554688 -28.285156 5.921875 -28.015625 5.171875 -28.015625 C 4.410156 -28.015625 3.769531 -28.285156 3.25 -28.828125 C 2.726562 -29.367188 2.46875 -30 2.46875 -30.71875 Z M 2.46875 -30.71875"/></g></g></g><g fill-opacity="1" fill="#1f1f1f"><g transform="translate(74.67896, 68.602434)"><g><path d="M 1.875 0 L 1.875 -0.640625 C 2.625 -0.867188 3.140625 -1.359375 3.421875 -2.109375 C 3.703125 -2.867188 3.84375 -4.25 3.84375 -6.25 L 3.84375 -32.34375 C 3.84375 -33.488281 3.765625 -34.347656 3.609375 -34.921875 C 3.460938 -35.503906 3.25 -35.925781 2.96875 -36.1875 C 2.695312 -36.445312 2.332031 -36.675781 1.875 -36.875 L 1.875 -37.421875 L 7.234375 -39.78125 L 7.6875 -39.4375 L 7.6875 -6.25 C 7.6875 -4.25 7.820312 -2.867188 8.09375 -2.109375 C 8.375 -1.359375 8.894531 -0.867188 9.65625 -0.640625 L 9.65625 0 Z M 1.875 0"/></g></g></g><g fill-opacity="1" fill="#1f1f1f"><g transform="translate(86.346712, 68.602434)"><g><path d="M 1.875 0 L 1.875 -0.640625 C 2.625 -0.867188 3.140625 -1.359375 3.421875 -2.109375 C 3.703125 -2.867188 3.84375 -4.25 3.84375 -6.25 L 3.84375 -32.34375 C 3.84375 -33.488281 3.765625 -34.347656 3.609375 -34.921875 C 3.460938 -35.503906 3.25 -35.925781 2.96875 -36.1875 C 2.695312 -36.445312 2.332031 -36.675781 1.875 -36.875 L 1.875 -37.421875 L 7.234375 -39.78125 L 7.6875 -39.4375 L 7.6875 -6.25 C 7.6875 -4.25 7.820312 -2.867188 8.09375 -2.109375 C 8.375 -1.359375 8.894531 -0.867188 9.65625 -0.640625 L 9.65625 0 Z M 1.875 0"/></g></g></g><g fill-opacity="1" fill="#1f1f1f"><g transform="translate(98.014465, 68.602434)"><g><path d="M 11.125 0.4375 C 9.15625 0.4375 7.375 0.191406 5.78125 -0.296875 C 4.1875 -0.785156 2.984375 -1.296875 2.171875 -1.828125 L 1.71875 -7.78125 L 2.171875 -7.875 C 3.210938 -5.539062 4.585938 -3.707031 6.296875 -2.375 C 8.003906 -1.050781 9.972656 -0.375 12.203125 -0.34375 C 13.753906 -0.34375 15.03125 -0.757812 16.03125 -1.59375 C 17.03125 -2.4375 17.53125 -3.546875 17.53125 -4.921875 C 17.53125 -6.109375 17.191406 -7.0625 16.515625 -7.78125 C 15.847656 -8.5 14.960938 -9.085938 13.859375 -9.546875 C 12.753906 -10.003906 11.566406 -10.429688 10.296875 -10.828125 C 8.742188 -11.316406 7.359375 -11.832031 6.140625 -12.375 C 4.929688 -12.914062 3.984375 -13.628906 3.296875 -14.515625 C 2.609375 -15.410156 2.265625 -16.59375 2.265625 -18.0625 C 2.265625 -20 3.039062 -21.632812 4.59375 -22.96875 C 6.15625 -24.300781 8.363281 -24.96875 11.21875 -24.96875 C 12.832031 -24.96875 14.316406 -24.828125 15.671875 -24.546875 C 17.035156 -24.265625 18.097656 -23.957031 18.859375 -23.625 L 19.046875 -18.609375 L 18.5625 -18.515625 C 17.769531 -20.285156 16.632812 -21.695312 15.15625 -22.75 C 13.6875 -23.800781 12.082031 -24.328125 10.34375 -24.328125 C 8.664062 -24.328125 7.328125 -23.945312 6.328125 -23.1875 C 5.328125 -22.4375 4.828125 -21.4375 4.828125 -20.1875 C 4.828125 -19.164062 5.144531 -18.3125 5.78125 -17.625 C 6.425781 -16.9375 7.28125 -16.351562 8.34375 -15.875 C 9.414062 -15.40625 10.585938 -14.957031 11.859375 -14.53125 C 12.816406 -14.226562 13.78125 -13.90625 14.75 -13.5625 C 15.71875 -13.21875 16.601562 -12.789062 17.40625 -12.28125 C 18.207031 -11.769531 18.863281 -11.113281 19.375 -10.3125 C 19.882812 -9.507812 20.140625 -8.484375 20.140625 -7.234375 C 20.140625 -5.859375 19.800781 -4.585938 19.125 -3.421875 C 18.457031 -2.253906 17.445312 -1.328125 16.09375 -0.640625 C 14.75 0.046875 13.09375 0.40625 11.125 0.4375 Z M 11.125 0.4375"/></g></g></g><g fill-opacity="1" fill="#1f1f1f"><g transform="translate(119.922269, 68.602434)"><g/></g></g><g fill-opacity="1" fill="#1f1f1f"><g transform="translate(130.260785, 68.602434)"><g><path d="M 31.015625 0.34375 C 30.265625 0.34375 29.335938 0.0390625 28.234375 -0.5625 C 27.140625 -1.175781 25.96875 -2 24.71875 -3.03125 C 23.46875 -4.0625 22.203125 -5.203125 20.921875 -6.453125 C 19.742188 -4.222656 18.304688 -2.503906 16.609375 -1.296875 C 14.921875 -0.0976562 13.078125 0.5 11.078125 0.5 C 9.171875 0.5 7.488281 0.0546875 6.03125 -0.828125 C 4.570312 -1.722656 3.4375 -2.890625 2.625 -4.328125 C 1.820312 -5.773438 1.421875 -7.351562 1.421875 -9.0625 C 1.421875 -11.257812 2.132812 -13.269531 3.5625 -15.09375 C 5 -16.914062 7.207031 -18.332031 10.1875 -19.34375 C 9.4375 -20.59375 8.832031 -21.804688 8.375 -22.984375 C 7.914062 -24.171875 7.6875 -25.351562 7.6875 -26.53125 C 7.6875 -27.75 8.03125 -29 8.71875 -30.28125 C 9.40625 -31.5625 10.519531 -32.632812 12.0625 -33.5 C 13.601562 -34.375 15.65625 -34.8125 18.21875 -34.8125 C 19.164062 -34.8125 20.269531 -34.703125 21.53125 -34.484375 C 22.800781 -34.273438 23.976562 -33.859375 25.0625 -33.234375 L 25.609375 -27.515625 L 25.15625 -27.421875 C 24.375 -29.265625 23.503906 -30.644531 22.546875 -31.5625 C 21.597656 -32.476562 20.628906 -33.09375 19.640625 -33.40625 C 18.660156 -33.71875 17.691406 -33.875 16.734375 -33.875 C 15.390625 -33.875 14.289062 -33.59375 13.4375 -33.03125 C 12.582031 -32.476562 11.957031 -31.789062 11.5625 -30.96875 C 11.175781 -30.144531 10.984375 -29.34375 10.984375 -28.5625 C 10.984375 -27.207031 11.375 -25.75 12.15625 -24.1875 C 12.945312 -22.632812 13.925781 -21.085938 15.09375 -19.546875 C 16.257812 -18.003906 17.414062 -16.5625 18.5625 -15.21875 C 20.007812 -13.539062 21.503906 -11.90625 23.046875 -10.3125 C 24.585938 -8.71875 26.078125 -7.289062 27.515625 -6.03125 C 28.960938 -4.769531 30.285156 -3.757812 31.484375 -3 C 32.679688 -2.25 33.660156 -1.875 34.421875 -1.875 C 35.203125 -1.875 35.789062 -2.25 36.1875 -3 C 36.582031 -3.757812 36.851562 -4.726562 37 -5.90625 C 37.144531 -7.09375 37.21875 -8.320312 37.21875 -9.59375 C 37.21875 -10.582031 37.09375 -11.664062 36.84375 -12.84375 C 36.601562 -14.03125 36.285156 -15.085938 35.890625 -16.015625 C 35.492188 -16.953125 35.035156 -17.503906 34.515625 -17.671875 L 23.734375 -17.671875 L 23.984375 -18.359375 L 41.75 -18.359375 L 41.5 -17.671875 L 35.796875 -17.671875 C 37.171875 -17.046875 38.273438 -16.078125 39.109375 -14.765625 C 39.953125 -13.453125 40.375 -12.023438 40.375 -10.484375 C 40.375 -9.109375 40.085938 -7.769531 39.515625 -6.46875 C 38.941406 -5.175781 38.1875 -4.007812 37.25 -2.96875 C 36.3125 -1.9375 35.300781 -1.125 34.21875 -0.53125 C 33.132812 0.0507812 32.066406 0.34375 31.015625 0.34375 Z M 4.875 -10.828125 C 4.875 -9.421875 5.191406 -8.050781 5.828125 -6.71875 C 6.472656 -5.382812 7.410156 -4.289062 8.640625 -3.4375 C 9.867188 -2.59375 11.335938 -2.171875 13.046875 -2.171875 C 14.328125 -2.171875 15.644531 -2.578125 17 -3.390625 C 18.363281 -4.210938 19.507812 -5.394531 20.4375 -6.9375 C 19.582031 -7.789062 18.734375 -8.6875 17.890625 -9.625 C 17.054688 -10.5625 16.265625 -11.488281 15.515625 -12.40625 C 14.554688 -13.550781 13.648438 -14.65625 12.796875 -15.71875 C 11.941406 -16.789062 11.1875 -17.835938 10.53125 -18.859375 C 8.332031 -18.003906 6.835938 -16.835938 6.046875 -15.359375 C 5.265625 -13.878906 4.875 -12.367188 4.875 -10.828125 Z M 4.875 -10.828125"/></g></g></g><g fill-opacity="1" fill="#1f1f1f"><g transform="translate(0.212697, 53.437562)"><g><path d="M 35.171875 -2.546875 C 35.171875 -0.046875 34.769531 2.222656 33.96875 4.265625 C 33.175781 6.316406 32.039062 8.066406 30.5625 9.515625 C 29.082031 10.972656 27.316406 12.097656 25.265625 12.890625 C 23.222656 13.691406 20.953125 14.09375 18.453125 14.09375 C 16.203125 14.09375 14.050781 13.742188 12 13.046875 C 9.945312 12.347656 8.144531 11.335938 6.59375 10.015625 C 5.050781 8.691406 3.816406 7.078125 2.890625 5.171875 C 1.960938 3.273438 1.5 1.125 1.5 -1.28125 C 1.5 -3.570312 1.898438 -5.539062 2.703125 -7.1875 C 3.503906 -8.84375 4.59375 -10.207031 5.96875 -11.28125 C 7.34375 -12.363281 8.953125 -13.164062 10.796875 -13.6875 C 12.648438 -14.207031 14.625 -14.46875 16.71875 -14.46875 L 16.71875 -14.171875 C 14.925781 -14.078125 13.265625 -13.640625 11.734375 -12.859375 C 10.210938 -12.085938 8.910156 -11.078125 7.828125 -9.828125 C 6.753906 -8.578125 5.914062 -7.148438 5.3125 -5.546875 C 4.71875 -3.953125 4.421875 -2.253906 4.421875 -0.453125 C 4.421875 1.597656 4.757812 3.460938 5.4375 5.140625 C 6.113281 6.816406 7.050781 8.253906 8.25 9.453125 C 9.445312 10.648438 10.894531 11.570312 12.59375 12.21875 C 14.300781 12.875 16.175781 13.203125 18.21875 13.203125 C 22.269531 13.203125 25.429688 12.015625 27.703125 9.640625 C 29.984375 7.265625 31.125 4.050781 31.125 0 C 31.125 -2.144531 30.632812 -4.101562 29.65625 -5.875 C 28.6875 -7.65625 27.460938 -9.332031 25.984375 -10.90625 C 24.515625 -12.488281 22.914062 -14.003906 21.1875 -15.453125 C 19.457031 -16.898438 17.851562 -18.347656 16.375 -19.796875 C 14.90625 -21.242188 13.679688 -22.742188 12.703125 -24.296875 C 11.734375 -25.847656 11.25 -27.523438 11.25 -29.328125 C 11.25 -30.628906 11.484375 -31.800781 11.953125 -32.84375 C 12.429688 -33.894531 13.082031 -34.769531 13.90625 -35.46875 C 14.738281 -36.175781 15.703125 -36.71875 16.796875 -37.09375 C 17.898438 -37.46875 19.078125 -37.65625 20.328125 -37.65625 C 20.828125 -37.65625 21.3125 -37.601562 21.78125 -37.5 C 22.257812 -37.394531 22.722656 -37.296875 23.171875 -37.203125 L 25.046875 -36.59375 C 26.046875 -36.300781 27 -36.15625 27.90625 -36.15625 C 28.601562 -36.15625 29.148438 -36.425781 29.546875 -36.96875 L 29.03125 -28.28125 C 28.820312 -29.28125 28.46875 -30.300781 27.96875 -31.34375 C 27.46875 -32.394531 26.832031 -33.34375 26.0625 -34.1875 C 25.289062 -35.039062 24.414062 -35.753906 23.4375 -36.328125 C 22.457031 -36.910156 21.394531 -37.203125 20.25 -37.203125 C 18.394531 -37.203125 16.804688 -36.703125 15.484375 -35.703125 C 14.160156 -34.703125 13.5 -33.203125 13.5 -31.203125 C 13.5 -29.648438 14.035156 -28.160156 15.109375 -26.734375 C 16.179688 -25.304688 17.519531 -23.90625 19.125 -22.53125 C 20.726562 -21.15625 22.46875 -19.753906 24.34375 -18.328125 C 26.21875 -16.910156 27.953125 -15.398438 29.546875 -13.796875 C 31.148438 -12.203125 32.488281 -10.476562 33.5625 -8.625 C 34.632812 -6.769531 35.171875 -4.742188 35.171875 -2.546875 Z M 35.171875 -2.546875"/></g></g></g><g fill-opacity="1" fill="#1f1f1f"><g transform="translate(70.04621, 117.608457)"><g><path d="M 13.4375 0.5 C 12.09375 0.5 10.726562 0.253906 9.34375 -0.234375 C 7.96875 -0.734375 6.707031 -1.484375 5.5625 -2.484375 C 4.414062 -3.484375 3.492188 -4.738281 2.796875 -6.25 C 2.109375 -7.757812 1.765625 -9.53125 1.765625 -11.5625 C 1.765625 -14.257812 2.363281 -16.609375 3.5625 -18.609375 C 4.757812 -20.609375 6.34375 -22.164062 8.3125 -23.28125 C 10.289062 -24.40625 12.425781 -24.96875 14.71875 -24.96875 C 16.789062 -24.96875 18.554688 -24.5625 20.015625 -23.75 C 21.472656 -22.945312 22.601562 -21.890625 23.40625 -20.578125 C 24.21875 -19.265625 24.640625 -17.820312 24.671875 -16.25 L 5.421875 -16.25 C 5.316406 -15.53125 5.265625 -14.773438 5.265625 -13.984375 C 5.265625 -11.753906 5.695312 -9.773438 6.5625 -8.046875 C 7.4375 -6.328125 8.671875 -4.988281 10.265625 -4.03125 C 11.859375 -3.082031 13.722656 -2.609375 15.859375 -2.609375 C 17.753906 -2.609375 19.40625 -3 20.8125 -3.78125 C 22.226562 -4.570312 23.5 -5.609375 24.625 -6.890625 L 25.0625 -6.453125 C 24.238281 -5.296875 23.253906 -4.1875 22.109375 -3.125 C 20.960938 -2.0625 19.671875 -1.191406 18.234375 -0.515625 C 16.804688 0.160156 15.207031 0.5 13.4375 0.5 Z M 5.5625 -16.890625 L 20.734375 -16.890625 C 20.566406 -18.003906 20.160156 -19.109375 19.515625 -20.203125 C 18.878906 -21.304688 18.023438 -22.226562 16.953125 -22.96875 C 15.890625 -23.707031 14.601562 -24.078125 13.09375 -24.078125 C 11 -24.109375 9.316406 -23.429688 8.046875 -22.046875 C 6.785156 -20.671875 5.957031 -18.953125 5.5625 -16.890625 Z M 5.5625 -16.890625"/></g></g></g><g fill-opacity="1" fill="#1f1f1f"><g transform="translate(96.483267, 117.608457)"><g><path d="M 1.578125 0 L 1.578125 -0.640625 C 2.328125 -0.867188 2.84375 -1.359375 3.125 -2.109375 C 3.40625 -2.867188 3.546875 -4.25 3.546875 -6.25 L 3.546875 -17.578125 C 3.546875 -18.722656 3.472656 -19.582031 3.328125 -20.15625 C 3.179688 -20.726562 2.96875 -21.144531 2.6875 -21.40625 C 2.40625 -21.675781 2.035156 -21.910156 1.578125 -22.109375 L 1.578125 -22.640625 L 6.9375 -25.015625 L 7.390625 -24.671875 L 7.390625 -18.515625 C 7.773438 -19.460938 8.285156 -20.347656 8.921875 -21.171875 C 9.566406 -21.992188 10.253906 -22.664062 10.984375 -23.1875 C 11.734375 -23.75 12.554688 -24.1875 13.453125 -24.5 C 14.359375 -24.8125 15.40625 -24.96875 16.59375 -24.96875 C 17.570312 -24.96875 18.347656 -24.847656 18.921875 -24.609375 C 19.503906 -24.378906 19.796875 -24.050781 19.796875 -23.625 C 19.796875 -23.101562 19.539062 -22.503906 19.03125 -21.828125 C 18.519531 -21.160156 17.820312 -20.828125 16.9375 -20.828125 C 16.28125 -20.828125 15.453125 -20.945312 14.453125 -21.1875 C 13.453125 -21.4375 12.226562 -21.773438 10.78125 -22.203125 C 10.320312 -21.878906 9.835938 -21.378906 9.328125 -20.703125 C 8.816406 -20.023438 8.390625 -19.273438 8.046875 -18.453125 C 7.703125 -17.640625 7.5 -16.835938 7.4375 -16.046875 L 7.390625 -16.046875 L 7.390625 -6.25 C 7.390625 -4.25 7.523438 -2.867188 7.796875 -2.109375 C 8.078125 -1.359375 8.597656 -0.867188 9.359375 -0.640625 L 9.359375 0 Z M 1.578125 0"/></g></g></g><g fill-opacity="1" fill="#1f1f1f"><g transform="translate(117.160294, 117.608457)"><g><path d="M 9.3125 0.5 C 7.757812 0.5 6.539062 -0.03125 5.65625 -1.09375 C 4.769531 -2.164062 4.328125 -3.984375 4.328125 -6.546875 L 4.328125 -23.921875 L 1.1875 -23.921875 L 1.1875 -24.625 L 7.484375 -30.671875 L 8.171875 -30.671875 L 8.171875 -24.625 L 15.65625 -24.625 L 15.40625 -23.921875 L 8.171875 -23.921875 L 8.171875 -6.546875 C 8.171875 -4.867188 8.488281 -3.675781 9.125 -2.96875 C 9.769531 -2.269531 10.617188 -1.921875 11.671875 -1.921875 C 12.359375 -1.921875 13.113281 -2.109375 13.9375 -2.484375 C 14.757812 -2.859375 15.578125 -3.523438 16.390625 -4.484375 L 16.84375 -4.03125 C 15.789062 -2.820312 14.628906 -1.765625 13.359375 -0.859375 C 12.097656 0.046875 10.75 0.5 9.3125 0.5 Z M 9.3125 0.5"/></g></g></g><g fill-opacity="1" fill="#1f1f1f"><g transform="translate(134.095763, 117.608457)"><g><path d="M 1.578125 0 L 1.578125 -0.640625 C 2.328125 -0.867188 2.84375 -1.359375 3.125 -2.109375 C 3.40625 -2.867188 3.546875 -4.25 3.546875 -6.25 L 3.546875 -17.578125 C 3.546875 -18.722656 3.476562 -19.582031 3.34375 -20.15625 C 3.21875 -20.726562 3.003906 -21.144531 2.703125 -21.40625 C 2.410156 -21.675781 2.035156 -21.910156 1.578125 -22.109375 L 1.578125 -22.640625 L 6.984375 -25.015625 L 7.390625 -24.671875 L 7.390625 -6.25 C 7.390625 -4.25 7.535156 -2.867188 7.828125 -2.109375 C 8.117188 -1.359375 8.628906 -0.867188 9.359375 -0.640625 L 9.359375 0 Z M 2.46875 -30.71875 C 2.46875 -31.507812 2.726562 -32.164062 3.25 -32.6875 C 3.769531 -33.21875 4.410156 -33.484375 5.171875 -33.484375 C 5.953125 -33.484375 6.597656 -33.21875 7.109375 -32.6875 C 7.617188 -32.164062 7.875 -31.507812 7.875 -30.71875 C 7.875 -30 7.609375 -29.367188 7.078125 -28.828125 C 6.554688 -28.285156 5.921875 -28.015625 5.171875 -28.015625 C 4.410156 -28.015625 3.769531 -28.285156 3.25 -28.828125 C 2.726562 -29.367188 2.46875 -30 2.46875 -30.71875 Z M 2.46875 -30.71875"/></g></g></g><g fill-opacity="1" fill="#1f1f1f"><g transform="translate(145.172743, 117.608457)"><g><path d="M 1.921875 0 L 1.921875 -0.640625 C 2.671875 -0.867188 3.1875 -1.359375 3.46875 -2.109375 C 3.75 -2.867188 3.890625 -4.25 3.890625 -6.25 L 3.890625 -23.578125 L 1.03125 -23.578125 L 1.28125 -24.265625 L 3.890625 -24.265625 C 3.984375 -26.109375 4.445312 -27.875 5.28125 -29.5625 C 6.125 -31.25 7.234375 -32.757812 8.609375 -34.09375 C 9.992188 -35.425781 11.578125 -36.476562 13.359375 -37.25 C 15.148438 -38.019531 17.046875 -38.40625 19.046875 -38.40625 C 21.285156 -38.40625 22.40625 -37.976562 22.40625 -37.125 C 22.40625 -36.820312 22.269531 -36.445312 22 -36 C 21.738281 -35.5625 21.367188 -35.160156 20.890625 -34.796875 C 20.421875 -34.441406 19.84375 -34.265625 19.15625 -34.265625 C 18.039062 -34.265625 16.921875 -34.421875 15.796875 -34.734375 C 14.679688 -35.046875 13.421875 -35.445312 12.015625 -35.9375 C 11.453125 -35.644531 10.832031 -35.210938 10.15625 -34.640625 C 9.488281 -34.066406 8.914062 -33.203125 8.4375 -32.046875 C 7.96875 -30.898438 7.734375 -29.296875 7.734375 -27.234375 L 7.734375 -24.265625 L 14.171875 -24.265625 L 13.890625 -23.578125 L 7.734375 -23.578125 L 7.734375 -6.25 C 7.734375 -4.25 7.867188 -2.867188 8.140625 -2.109375 C 8.421875 -1.359375 8.941406 -0.867188 9.703125 -0.640625 L 9.703125 0 Z M 1.921875 0"/></g></g></g><g fill-opacity="1" fill="#1f1f1f"><g transform="translate(160.138972, 117.608457)"><g><path d="M 1.578125 0 L 1.578125 -0.640625 C 2.328125 -0.867188 2.84375 -1.359375 3.125 -2.109375 C 3.40625 -2.867188 3.546875 -4.25 3.546875 -6.25 L 3.546875 -17.578125 C 3.546875 -18.722656 3.476562 -19.582031 3.34375 -20.15625 C 3.21875 -20.726562 3.003906 -21.144531 2.703125 -21.40625 C 2.410156 -21.675781 2.035156 -21.910156 1.578125 -22.109375 L 1.578125 -22.640625 L 6.984375 -25.015625 L 7.390625 -24.671875 L 7.390625 -6.25 C 7.390625 -4.25 7.535156 -2.867188 7.828125 -2.109375 C 8.117188 -1.359375 8.628906 -0.867188 9.359375 -0.640625 L 9.359375 0 Z M 2.46875 -30.71875 C 2.46875 -31.507812 2.726562 -32.164062 3.25 -32.6875 C 3.769531 -33.21875 4.410156 -33.484375 5.171875 -33.484375 C 5.953125 -33.484375 6.597656 -33.21875 7.109375 -32.6875 C 7.617188 -32.164062 7.875 -31.507812 7.875 -30.71875 C 7.875 -30 7.609375 -29.367188 7.078125 -28.828125 C 6.554688 -28.285156 5.921875 -28.015625 5.171875 -28.015625 C 4.410156 -28.015625 3.769531 -28.285156 3.25 -28.828125 C 2.726562 -29.367188 2.46875 -30 2.46875 -30.71875 Z M 2.46875 -30.71875"/></g></g></g><g fill-opacity="1" fill="#1f1f1f"><g transform="translate(171.215952, 117.608457)"><g><path d="M 13.4375 0.5 C 11.53125 0.5 9.679688 0.046875 7.890625 -0.859375 C 6.109375 -1.765625 4.640625 -3.117188 3.484375 -4.921875 C 2.335938 -6.722656 1.765625 -8.9375 1.765625 -11.5625 C 1.765625 -14.15625 2.378906 -16.460938 3.609375 -18.484375 C 4.847656 -20.503906 6.484375 -22.085938 8.515625 -23.234375 C 10.546875 -24.390625 12.765625 -24.96875 15.171875 -24.96875 C 16.742188 -24.96875 18.160156 -24.832031 19.421875 -24.5625 C 20.679688 -24.300781 21.679688 -23.972656 22.421875 -23.578125 C 23.160156 -23.191406 23.53125 -22.765625 23.53125 -22.296875 C 23.53125 -21.742188 23.207031 -21.160156 22.5625 -20.546875 C 21.925781 -19.941406 21.21875 -19.640625 20.4375 -19.640625 C 19.28125 -19.640625 16.785156 -21.148438 12.953125 -24.171875 C 10.648438 -23.773438 8.789062 -22.640625 7.375 -20.765625 C 5.96875 -18.898438 5.265625 -16.640625 5.265625 -13.984375 C 5.265625 -11.753906 5.695312 -9.773438 6.5625 -8.046875 C 7.4375 -6.328125 8.671875 -4.988281 10.265625 -4.03125 C 11.859375 -3.082031 13.722656 -2.609375 15.859375 -2.609375 C 17.753906 -2.609375 19.40625 -3 20.8125 -3.78125 C 22.226562 -4.570312 23.5 -5.609375 24.625 -6.890625 L 25.0625 -6.453125 C 24.238281 -5.296875 23.253906 -4.1875 22.109375 -3.125 C 20.960938 -2.0625 19.671875 -1.191406 18.234375 -0.515625 C 16.804688 0.160156 15.207031 0.5 13.4375 0.5 Z M 13.4375 0.5"/></g></g></g><g fill-opacity="1" fill="#1f1f1f"><g transform="translate(196.766841, 117.608457)"><g><path d="M 20.625 0 C 19.644531 0 19.15625 -0.492188 19.15625 -1.484375 L 19.15625 -10.34375 C 18.65625 -8.332031 17.878906 -6.503906 16.828125 -4.859375 C 15.785156 -3.222656 14.566406 -1.921875 13.171875 -0.953125 C 11.773438 0.015625 10.253906 0.5 8.609375 0.5 C 7.398438 0.5 6.269531 0.253906 5.21875 -0.234375 C 4.164062 -0.734375 3.316406 -1.457031 2.671875 -2.40625 C 2.035156 -3.363281 1.71875 -4.546875 1.71875 -5.953125 C 1.71875 -7.660156 2.226562 -9.054688 3.25 -10.140625 C 4.269531 -11.222656 5.625 -12.109375 7.3125 -12.796875 C 9 -13.484375 10.8125 -14.09375 12.75 -14.625 L 19.15625 -16.34375 C 19.019531 -18.738281 18.359375 -20.503906 17.171875 -21.640625 C 15.992188 -22.773438 14.359375 -23.34375 12.265625 -23.34375 C 10.785156 -23.34375 9.347656 -22.988281 7.953125 -22.28125 C 6.554688 -21.570312 5.234375 -20.460938 3.984375 -18.953125 L 3.546875 -19.34375 C 4.953125 -21.082031 6.550781 -22.453125 8.34375 -23.453125 C 10.132812 -24.460938 12.097656 -24.96875 14.234375 -24.96875 C 17.210938 -24.96875 19.40625 -24.1875 20.8125 -22.625 C 22.226562 -21.0625 22.9375 -18.882812 22.9375 -16.09375 L 22.9375 -6.25 C 22.9375 -4.25 23.078125 -2.867188 23.359375 -2.109375 C 23.640625 -1.359375 24.15625 -0.867188 24.90625 -0.640625 L 24.90625 0 Z M 5.421875 -7.328125 C 5.421875 -5.722656 5.90625 -4.5 6.875 -3.65625 C 7.84375 -2.820312 9.03125 -2.40625 10.4375 -2.40625 C 11.75 -2.40625 12.9375 -2.773438 14 -3.515625 C 15.070312 -4.253906 15.984375 -5.210938 16.734375 -6.390625 C 17.492188 -7.578125 18.085938 -8.859375 18.515625 -10.234375 C 18.941406 -11.617188 19.15625 -12.953125 19.15625 -14.234375 L 19.15625 -15.703125 L 12.953125 -14.03125 C 11.734375 -13.707031 10.539062 -13.273438 9.375 -12.734375 C 8.207031 -12.191406 7.253906 -11.492188 6.515625 -10.640625 C 5.785156 -9.785156 5.421875 -8.679688 5.421875 -7.328125 Z M 5.421875 -7.328125"/></g></g></g><g fill-opacity="1" fill="#1f1f1f"><g transform="translate(222.859282, 117.608457)"><g><path d="M 9.3125 0.5 C 7.757812 0.5 6.539062 -0.03125 5.65625 -1.09375 C 4.769531 -2.164062 4.328125 -3.984375 4.328125 -6.546875 L 4.328125 -23.921875 L 1.1875 -23.921875 L 1.1875 -24.625 L 7.484375 -30.671875 L 8.171875 -30.671875 L 8.171875 -24.625 L 15.65625 -24.625 L 15.40625 -23.921875 L 8.171875 -23.921875 L 8.171875 -6.546875 C 8.171875 -4.867188 8.488281 -3.675781 9.125 -2.96875 C 9.769531 -2.269531 10.617188 -1.921875 11.671875 -1.921875 C 12.359375 -1.921875 13.113281 -2.109375 13.9375 -2.484375 C 14.757812 -2.859375 15.578125 -3.523438 16.390625 -4.484375 L 16.84375 -4.03125 C 15.789062 -2.820312 14.628906 -1.765625 13.359375 -0.859375 C 12.097656 0.046875 10.75 0.5 9.3125 0.5 Z M 9.3125 0.5"/></g></g></g><g fill-opacity="1" fill="#1f1f1f"><g transform="translate(239.794739, 117.608457)"><g><path d="M 1.578125 0 L 1.578125 -0.640625 C 2.328125 -0.867188 2.84375 -1.359375 3.125 -2.109375 C 3.40625 -2.867188 3.546875 -4.25 3.546875 -6.25 L 3.546875 -17.578125 C 3.546875 -18.722656 3.476562 -19.582031 3.34375 -20.15625 C 3.21875 -20.726562 3.003906 -21.144531 2.703125 -21.40625 C 2.410156 -21.675781 2.035156 -21.910156 1.578125 -22.109375 L 1.578125 -22.640625 L 6.984375 -25.015625 L 7.390625 -24.671875 L 7.390625 -6.25 C 7.390625 -4.25 7.535156 -2.867188 7.828125 -2.109375 C 8.117188 -1.359375 8.628906 -0.867188 9.359375 -0.640625 L 9.359375 0 Z M 2.46875 -30.71875 C 2.46875 -31.507812 2.726562 -32.164062 3.25 -32.6875 C 3.769531 -33.21875 4.410156 -33.484375 5.171875 -33.484375 C 5.953125 -33.484375 6.597656 -33.21875 7.109375 -32.6875 C 7.617188 -32.164062 7.875 -31.507812 7.875 -30.71875 C 7.875 -30 7.609375 -29.367188 7.078125 -28.828125 C 6.554688 -28.285156 5.921875 -28.015625 5.171875 -28.015625 C 4.410156 -28.015625 3.769531 -28.285156 3.25 -28.828125 C 2.726562 -29.367188 2.46875 -30 2.46875 -30.71875 Z M 2.46875 -30.71875"/></g></g></g><g fill-opacity="1" fill="#1f1f1f"><g transform="translate(250.871719, 117.608457)"><g><path d="M 14.671875 0.5 C 13.097656 0.5 11.546875 0.253906 10.015625 -0.234375 C 8.492188 -0.734375 7.109375 -1.488281 5.859375 -2.5 C 4.609375 -3.519531 3.613281 -4.816406 2.875 -6.390625 C 2.132812 -7.972656 1.765625 -9.832031 1.765625 -11.96875 C 1.765625 -14.519531 2.375 -16.769531 3.59375 -18.71875 C 4.8125 -20.675781 6.40625 -22.207031 8.375 -23.3125 C 10.34375 -24.414062 12.441406 -24.96875 14.671875 -24.96875 C 16.210938 -24.96875 17.738281 -24.726562 19.25 -24.25 C 20.757812 -23.769531 22.132812 -23.019531 23.375 -22 C 24.625 -20.988281 25.625 -19.691406 26.375 -18.109375 C 27.132812 -16.535156 27.515625 -14.648438 27.515625 -12.453125 C 27.515625 -10.359375 27.128906 -8.503906 26.359375 -6.890625 C 25.585938 -5.285156 24.5625 -3.929688 23.28125 -2.828125 C 22.007812 -1.734375 20.617188 -0.90625 19.109375 -0.34375 C 17.597656 0.21875 16.117188 0.5 14.671875 0.5 Z M 5.5625 -14.765625 C 5.5625 -13.191406 5.804688 -11.578125 6.296875 -9.921875 C 6.796875 -8.265625 7.503906 -6.726562 8.421875 -5.3125 C 9.335938 -3.90625 10.441406 -2.757812 11.734375 -1.875 C 13.035156 -0.988281 14.507812 -0.546875 16.15625 -0.546875 C 17.925781 -0.546875 19.367188 -0.960938 20.484375 -1.796875 C 21.597656 -2.628906 22.425781 -3.734375 22.96875 -5.109375 C 23.507812 -6.492188 23.78125 -7.972656 23.78125 -9.546875 C 23.78125 -11.128906 23.515625 -12.78125 22.984375 -14.5 C 22.460938 -16.21875 21.71875 -17.816406 20.75 -19.296875 C 19.78125 -20.773438 18.625 -21.957031 17.28125 -22.84375 C 15.9375 -23.726562 14.457031 -24.125 12.84375 -24.03125 C 11.175781 -23.957031 9.800781 -23.492188 8.71875 -22.640625 C 7.632812 -21.796875 6.835938 -20.679688 6.328125 -19.296875 C 5.816406 -17.921875 5.5625 -16.410156 5.5625 -14.765625 Z M 5.5625 -14.765625"/></g></g></g><g fill-opacity="1" fill="#1f1f1f"><g transform="translate(280.508807, 117.608457)"><g><path d="M 1.578125 0 L 1.578125 -0.640625 C 2.328125 -0.867188 2.84375 -1.359375 3.125 -2.109375 C 3.40625 -2.867188 3.546875 -4.25 3.546875 -6.25 L 3.546875 -17.578125 C 3.546875 -18.722656 3.476562 -19.582031 3.34375 -20.15625 C 3.21875 -20.726562 3.003906 -21.144531 2.703125 -21.40625 C 2.410156 -21.675781 2.035156 -21.910156 1.578125 -22.109375 L 1.578125 -22.640625 L 6.984375 -25.015625 L 7.390625 -24.671875 L 7.390625 -20.4375 C 8.828125 -21.582031 10.445312 -22.625 12.25 -23.5625 C 14.0625 -24.5 15.921875 -24.96875 17.828125 -24.96875 C 20.253906 -24.96875 22.15625 -24.257812 23.53125 -22.84375 C 24.914062 -21.4375 25.609375 -19.285156 25.609375 -16.390625 L 25.609375 -6.25 C 25.609375 -4.25 25.742188 -2.867188 26.015625 -2.109375 C 26.296875 -1.359375 26.816406 -0.867188 27.578125 -0.640625 L 27.578125 0 L 19.796875 0 L 19.796875 -0.640625 C 20.546875 -0.867188 21.0625 -1.359375 21.34375 -2.109375 C 21.625 -2.867188 21.765625 -4.25 21.765625 -6.25 L 21.765625 -15.40625 C 21.765625 -17.96875 21.222656 -19.929688 20.140625 -21.296875 C 19.054688 -22.660156 17.429688 -23.34375 15.265625 -23.34375 C 13.921875 -23.34375 12.582031 -22.988281 11.25 -22.28125 C 9.914062 -21.570312 8.628906 -20.691406 7.390625 -19.640625 L 7.390625 -6.25 C 7.390625 -4.25 7.535156 -2.867188 7.828125 -2.109375 C 8.117188 -1.359375 8.628906 -0.867188 9.359375 -0.640625 L 9.359375 0 Z M 1.578125 0"/></g></g></g><g fill-opacity="1" fill="#1f1f1f"><g transform="translate(32.492436, 117.141488)"><g><path d="M 35.03125 -5.328125 C 34.175781 -4.578125 33.195312 -3.875 32.09375 -3.21875 C 31 -2.570312 29.847656 -2 28.640625 -1.5 C 27.441406 -1 26.226562 -0.597656 25 -0.296875 C 23.78125 0.00390625 22.597656 0.15625 21.453125 0.15625 C 18.847656 0.15625 16.394531 -0.316406 14.09375 -1.265625 C 11.800781 -2.222656 9.800781 -3.523438 8.09375 -5.171875 C 6.394531 -6.828125 5.054688 -8.78125 4.078125 -11.03125 C 3.109375 -13.28125 2.625 -15.726562 2.625 -18.375 C 2.625 -21.019531 3.109375 -23.46875 4.078125 -25.71875 C 5.054688 -27.96875 6.394531 -29.914062 8.09375 -31.5625 C 9.800781 -33.21875 11.800781 -34.519531 14.09375 -35.46875 C 16.394531 -36.425781 18.847656 -36.90625 21.453125 -36.90625 C 23.503906 -36.90625 25.628906 -36.640625 27.828125 -36.109375 C 30.023438 -35.585938 31.925781 -34.675781 33.53125 -33.375 L 33.53125 -27.375 C 32.78125 -28.425781 31.914062 -29.472656 30.9375 -30.515625 C 29.957031 -31.566406 28.90625 -32.519531 27.78125 -33.375 C 26.65625 -34.226562 25.441406 -34.914062 24.140625 -35.4375 C 22.847656 -35.957031 21.523438 -36.21875 20.171875 -36.21875 C 18.023438 -36.21875 16.175781 -35.707031 14.625 -34.6875 C 13.070312 -33.664062 11.78125 -32.363281 10.75 -30.78125 C 9.726562 -29.207031 8.976562 -27.445312 8.5 -25.5 C 8.03125 -23.550781 7.796875 -21.648438 7.796875 -19.796875 C 7.796875 -17.742188 8.070312 -15.582031 8.625 -13.3125 C 9.175781 -11.039062 10.023438 -8.96875 11.171875 -7.09375 C 12.328125 -5.21875 13.789062 -3.664062 15.5625 -2.4375 C 17.332031 -1.207031 19.445312 -0.59375 21.90625 -0.59375 C 23.300781 -0.59375 24.609375 -0.851562 25.828125 -1.375 C 27.054688 -1.90625 28.179688 -2.59375 29.203125 -3.4375 C 30.234375 -4.289062 31.160156 -5.269531 31.984375 -6.375 C 32.804688 -7.476562 33.519531 -8.601562 34.125 -9.75 Z M 35.03125 -5.328125"/></g></g></g></g></g></svg>