<svg version="1.0" preserveAspectRatio="xMidYMid meet" viewBox="42 34.499999172 297 314.99999244" zoomAndPan="magnify" xmlns:xlink="http://www.w3.org/1999/xlink" xmlns="http://www.w3.org/2000/svg" style="max-height: 500px" width="297" height="314.99999244"><path fill-rule="nonzero" fill-opacity="1" d="M 161.136719 237.226562 C 156.621094 235.09375 151.992188 234.398438 148.988281 245.660156 C 142.789062 268.164062 118.488281 254.582031 112.46875 284.390625 C 111.195312 290.535156 110.976562 291.007812 105.628906 299.957031 C 81.46875 340.207031 145.488281 331.921875 140.183594 293.84375 C 138.863281 284.371094 139.535156 280.503906 151.097656 273.371094 C 163.644531 265.644531 164.226562 261.3125 164.226562 251.117188 C 164.328125 239.269531 166.203125 239.644531 161.136719 237.226562 Z M 161.136719 237.226562" fill="#fcc331"/><path fill-rule="nonzero" fill-opacity="1" d="M 199.070312 136.097656 C 205.265625 137.773438 205.960938 137.269531 206.054688 126.570312 C 206.324219 104.890625 228.734375 106.984375 219.292969 79.585938 C 224.109375 62.742188 225.113281 65.15625 225.113281 57.257812 C 225.113281 31.484375 197.289062 37.609375 193.066406 57.660156 C 190.390625 69.84375 200.652344 83.558594 198.125 100.898438 C 197.527344 105.121094 196.644531 106.5 191.976562 115.585938 C 191.976562 124.574219 191.789062 124.183594 193.902344 129.371094 C 196.652344 136.003906 195.070312 135.007812 199.070312 136.097656 Z M 199.070312 136.097656" fill="#fcc331"/><path fill-rule="nonzero" fill-opacity="1" d="M 218.785156 133.335938 C 216.929688 137.042969 216.238281 141.375 217.1875 143.117188 C 217.949219 144.546875 224.425781 148.609375 225.152344 148.609375 C 225.984375 148.609375 227.003906 147.226562 227.585938 145.1875 C 228.824219 140.824219 232.898438 137.078125 240.355469 133.519531 C 260.109375 124.089844 257.632812 116.414062 261.78125 108.136719 C 266.007812 99.679688 286.363281 97.9375 294.1875 84.5 C 307.332031 61.578125 275.777344 40.210938 256.867188 76.570312 C 246.597656 96.382812 238.992188 84.488281 237.191406 106.933594 C 235.84375 122.949219 223.476562 123.722656 218.785156 133.335938 Z M 218.785156 133.335938" fill="#fcc331"/><path fill-rule="nonzero" fill-opacity="1" d="M 148.367188 213.992188 C 153.34375 221.644531 164.089844 231.722656 177.648438 233.152344 C 242.269531 240.046875 249.386719 146.328125 182.886719 146.644531 C 154.285156 146.644531 128.363281 183.117188 148.367188 213.992188 Z M 148.367188 213.992188" fill="#fcc331"/><path fill-rule="nonzero" fill-opacity="1" d="M 147.894531 98.710938 C 151.4375 115.796875 166.289062 110.582031 168.15625 128.496094 C 168.628906 132.96875 169.246094 134.605469 171.429688 136.96875 C 172.335938 137.914062 173.355469 138.640625 173.648438 138.535156 C 178.648438 136.292969 184.984375 137.210938 181.941406 131.953125 C 176.972656 123.5 181.5 118.292969 179.832031 109.953125 C 177.777344 100.269531 171.933594 96.648438 172.011719 89.296875 C 172.011719 81.390625 176.710938 72.421875 174.738281 64.058594 C 172.832031 55.925781 171.398438 50.101562 163.464844 46.132812 C 155.203125 42.054688 148.933594 45.691406 143.53125 52.316406 C 135.382812 62.242188 133.746094 72.574219 138.730469 82.5 C 143.5625 91.859375 145.941406 89.601562 147.898438 98.714844 Z M 147.894531 98.710938" fill="#fcc331"/><path fill-rule="nonzero" fill-opacity="1" d="M 272.546875 148.132812 C 260.53125 154.039062 244.691406 143.28125 236.972656 158.714844 C 233.609375 165.574219 236.445312 167.644531 237.808594 172.28125 C 238.125 173.703125 239.777344 175.878906 240.570312 175.878906 C 242.050781 175.878906 252.230469 163.652344 263.378906 169.1875 C 271.707031 173.351562 276.207031 172.933594 279.492188 172.933594 C 285.378906 172.933594 290.832031 173.25 298.226562 163.914062 C 308.273438 151.09375 313.828125 158.8125 324.921875 147.515625 C 329.214844 143.082031 330.890625 139.550781 331.398438 133.878906 C 332.34375 123.003906 332.378906 121.621094 331.578125 118.824219 C 327.863281 106.140625 320.820312 100.910156 309.535156 108.132812 C 300.652344 113.839844 298.582031 110.863281 289.675781 117.1875 C 275.183594 127.464844 283.273438 142.898438 272.542969 148.132812 Z M 272.546875 148.132812" fill="#fcc331"/><path fill-rule="nonzero" fill-opacity="1" d="M 96.535156 109.296875 C 105.347656 118.109375 102.308594 131.777344 122.796875 135.917969 C 132.417969 137.839844 140.164062 143.828125 144.257812 150.023438 C 147.496094 154.929688 147.648438 153.941406 154.585938 147.335938 C 154.152344 142.707031 154.273438 141.566406 152.113281 137.40625 C 140.398438 114.429688 120.71875 130.101562 120.578125 100.898438 C 120.503906 91.261719 119.996094 88.679688 117.121094 83.152344 C 110.367188 70.199219 93.710938 65.21875 89.660156 65.257812 C 76.113281 65.320312 67.65625 75.734375 69.4375 85.988281 C 71.832031 99.125 86.511719 99.386719 96.535156 109.296875 Z M 96.535156 109.296875" fill="#fcc331"/><path fill-rule="nonzero" fill-opacity="1" d="M 312.375 189.117188 C 302.710938 191.441406 299.203125 189.601562 295.28125 188.027344 C 285.867188 184.238281 277.917969 184.199219 270.109375 191.515625 C 259.953125 200.9375 257.242188 193.738281 247.050781 193.953125 C 239.453125 194.15625 238.800781 196.195312 238.066406 200.535156 C 236.605469 209.578125 239.796875 201.066406 254.253906 210.207031 C 274.136719 222.75 279.914062 210.285156 289.9375 214.828125 C 295.449219 217.316406 296.703125 222.660156 305.867188 224.351562 C 314.203125 225.925781 317.765625 222.703125 323.835938 216.863281 C 330.773438 210.171875 337.492188 206.238281 333.292969 197.1875 C 329.554688 189.15625 321.527344 186.933594 312.378906 189.117188 Z M 312.375 189.117188" fill="#fcc331"/><path fill-rule="nonzero" fill-opacity="1" d="M 242.210938 287.59375 C 238.164062 282.589844 238.5 279.929688 238.355469 264.757812 C 229.878906 247.617188 223.582031 254.496094 216.421875 242.464844 C 215.367188 240.683594 214.203125 238.972656 213.804688 238.648438 C 212.75 237.773438 209.730469 238.320312 207.257812 239.847656 C 200.191406 244.265625 208.878906 254.351562 213.949219 260.9375 C 218.726562 267.273438 220.65625 269.472656 216.566406 280.757812 C 212.703125 291.386719 217.097656 302.210938 224.789062 307.992188 C 233.28125 314.429688 235.691406 332.148438 251.378906 331.703125 C 258.582031 331.46875 266.789062 323.8125 266.21875 312.9375 C 265.472656 298.832031 248.480469 295.527344 242.210938 287.59375 Z M 242.210938 287.59375" fill="#fcc331"/><path fill-rule="nonzero" fill-opacity="1" d="M 305.9375 271.082031 C 287.679688 262.511719 284.125 261.042969 280.152344 248.753906 C 269.878906 216.296875 253.808594 233.542969 233.808594 223.261719 C 231.882812 222.242188 230.898438 221.988281 230.355469 222.28125 C 229.191406 222.898438 225.371094 228.425781 225.371094 229.445312 C 225.371094 231.117188 227.804688 235.042969 230.136719 237.117188 C 233.042969 239.773438 238.171875 242.136719 245.121094 244.097656 C 254.617188 246.753906 256.726562 249.335938 258.363281 260.683594 C 262.664062 289.585938 269.914062 277.339844 280.1875 292.898438 C 289.863281 307.632812 303.132812 308.472656 311.214844 303.769531 C 320.394531 298.484375 320.507812 277.933594 305.9375 271.082031 Z M 305.9375 271.082031" fill="#fcc331"/><path fill-rule="nonzero" fill-opacity="1" d="M 125.339844 247.480469 C 134.167969 243.25 136.511719 234.9375 141.164062 228.9375 C 143.238281 226.355469 143.238281 226.320312 142.546875 224.863281 C 141.238281 222.175781 138.148438 218.609375 137.054688 218.648438 C 132.257812 218.648438 121.542969 230.308594 119.121094 231.519531 C 115.882812 233.191406 111.007812 233.773438 102.605469 233.519531 C 86.894531 233.046875 83.621094 234.574219 76.128906 245.957031 C 65.613281 261.890625 58.265625 252.667969 50.667969 264.320312 C 48.886719 267.007812 48.886719 267.082031 49.101562 270.425781 C 50.660156 291.851562 74.746094 289.609375 86.605469 278.828125 C 90.351562 275.449219 92.863281 271.882812 96.460938 264.71875 C 106.066406 245.726562 110.648438 254.488281 125.34375 247.480469 Z M 125.339844 247.480469" fill="#fcc331"/><path fill-rule="nonzero" fill-opacity="1" d="M 191.90625 250.753906 C 191.832031 246.171875 191.726562 245.300781 190.996094 244.789062 C 189.941406 243.988281 183.140625 243.445312 181.613281 244.027344 C 178.601562 245.21875 179.984375 248.421875 177.464844 256.570312 C 175.285156 263.734375 175.5 266.351562 178.777344 272.859375 C 179.90625 275.117188 180.8125 277.441406 180.8125 278.097656 C 180.8125 283.320312 171.898438 288.917969 169.210938 297.1875 C 167.074219 303.832031 171.503906 308.992188 167.246094 317.226562 C 161.230469 328.90625 167.8125 339.65625 176.703125 342.101562 C 181.359375 343.410156 185.507812 341.667969 190.5625 336.320312 C 205.535156 320.402344 193.433594 308.804688 193.433594 297.699219 C 193.433594 285.0625 211.644531 283.414062 197.4375 264.828125 C 191.476562 256.972656 191.980469 255.683594 191.90625 250.753906 Z M 191.90625 250.753906" fill="#fcc331"/><path fill-rule="nonzero" fill-opacity="1" d="M 69.398438 166.789062 C 79.0625 169.109375 88.714844 162.9375 96.351562 164.132812 C 106.488281 165.699219 110.847656 176.703125 120.6875 179.042969 C 123.574219 179.699219 135.914062 180.792969 138.511719 173.804688 C 142.511719 163.121094 133.917969 169.339844 122.980469 163.804688 C 112.558594 158.546875 113.285156 147.398438 101.226562 140.898438 C 94.859375 137.476562 86.574219 140.4375 80.96875 137.585938 C 75.714844 134.964844 74.242188 128.886719 65.546875 125.875 C 59.253906 123.695312 54.632812 124.386719 50.707031 128.0625 C 46.992188 131.550781 46.484375 132.898438 46.484375 139.296875 C 46.484375 144.167969 46.628906 145.078125 47.71875 147.625 C 49.933594 152.921875 58.847656 164.296875 69.398438 166.789062 Z M 69.398438 166.789062" fill="#fcc331"/><path fill-rule="nonzero" fill-opacity="1" d="M 61.25 222.535156 C 71.332031 224.789062 76.585938 219.664062 81.4375 215.011719 C 91.503906 205.46875 93.742188 207.011719 108.539062 212.5 C 120.109375 216.820312 125.207031 211.222656 133.527344 204.320312 C 133.527344 195.65625 133.039062 196.167969 127.671875 198.027344 C 107.574219 205.242188 105.667969 184.882812 82.859375 184.792969 C 64.511719 184.667969 72.1875 194.308594 57.832031 197.738281 C 37.496094 202.636719 50.28125 220.167969 61.25 222.539062 Z M 61.25 222.535156" fill="#fcc331"/></svg>