<svg version="1.0" preserveAspectRatio="xMidYMid meet" viewBox="0 235.00799999999998 1023.347581552306 342.144" zoomAndPan="magnify" xmlns:xlink="http://www.w3.org/1999/xlink" xmlns="http://www.w3.org/2000/svg" style="max-height: 500px" width="1023.347581552306" height="342.144"><defs><clipPath id="047b9c51cc"><path clip-rule="nonzero" d="M 0 237.375 L 1024 237.375 L 1024 575.859375 L 0 575.859375 Z M 0 237.375"/></clipPath></defs><g clip-path="url(#047b9c51cc)"><path fill-rule="nonzero" fill-opacity="1" d="M 1024.09375 575.890625 L 1024.09375 237.617188 C 999.644531 245.875 978.636719 263.484375 964.347656 285.097656 C 953.941406 300.832031 946.644531 318.84375 933.515625 332.378906 C 906.609375 360.136719 862.675781 362.023438 824.609375 355.25 C 786.558594 348.476562 748.859375 334.902344 710.363281 338.410156 C 647.121094 344.1875 597.761719 393.800781 539.863281 419.894531 C 526.085938 426.101562 511.246094 431.070312 496.160156 430.097656 C 467.527344 428.234375 444.886719 406 418.574219 394.554688 C 334.429688 357.960938 232.300781 436.195312 148.386719 399.089844 C 120.804688 386.890625 98.554688 363.128906 69.234375 356.113281 C 48.574219 351.160156 26.851562 355.210938 5.707031 353.117188 C 3.832031 352.929688 1.941406 352.644531 0.0546875 352.308594 L 0.0546875 575.863281 L 1024.09375 575.863281 Z M 1024.09375 575.890625" fill="#ffffff"/></g></svg>